<?xml version="1.0" encoding="UTF-8"?>
<!DOCTYPE svg PUBLIC "-//W3C//DTD SVG 1.1//EN" "http://www.w3.org/Graphics/SVG/1.1/DTD/svg11.dtd">
<svg xmlns="http://www.w3.org/2000/svg" version="1.1" width="1200px" height="1200px" style="shape-rendering:geometricPrecision; text-rendering:geometricPrecision; image-rendering:optimizeQuality; fill-rule:evenodd; clip-rule:evenodd" xmlns:xlink="http://www.w3.org/1999/xlink">
<g><path style="opacity:0.022" fill="#fefffe" d="M 6.5,8.5 C 6.89657,7.47498 7.56323,7.30831 8.5,8C 20.4611,17.6256 32.1278,27.6256 43.5,38C 107,101.5 170.5,165 234,228.5C 239.805,236.606 245.972,244.439 252.5,252C 251.833,252.667 251.167,252.667 250.5,252C 240.021,243.582 229.688,234.915 219.5,226C 154.667,161.167 89.8333,96.3333 25,31.5C 21.5184,28.023 18.8518,24.023 17,19.5C 13.2684,15.9378 9.76837,12.2712 6.5,8.5 Z"/></g>
<g><path style="opacity:0.022" fill="#fefffe" d="M 607.5,8.5 C 607.897,7.47498 608.563,7.30831 609.5,8C 621.461,17.6256 633.128,27.6256 644.5,38C 708,101.5 771.5,165 835,228.5C 840.805,236.606 846.972,244.439 853.5,252C 852.833,252.667 852.167,252.667 851.5,252C 841.021,243.582 830.688,234.915 820.5,226C 755.667,161.167 690.833,96.3333 626,31.5C 622.518,28.023 619.852,24.023 618,19.5C 614.268,15.9378 610.768,12.2712 607.5,8.5 Z"/></g>
<g><path style="opacity:0.119" fill="#fefffe" d="M 500.5,74.5 C 513.359,75.888 519.192,83.2213 518,96.5C 515.056,103.643 509.723,107.643 502,108.5C 486.947,104.676 482.613,95.6763 489,81.5C 492.225,77.9793 496.058,75.646 500.5,74.5 Z M 498.5,82.5 C 500.857,82.3367 503.19,82.5034 505.5,83C 501.298,86.8666 497.465,91.0332 494,95.5C 493.598,94.1279 493.098,92.7946 492.5,91.5C 493.745,87.9355 495.745,84.9355 498.5,82.5 Z M 510.5,88.5 C 511.803,97.3612 507.803,101.194 498.5,100C 503.002,96.6642 507.002,92.8309 510.5,88.5 Z"/></g>
<g><path style="opacity:0.119" fill="#fefffe" d="M 1101.5,74.5 C 1114.36,75.888 1120.19,83.2213 1119,96.5C 1116.06,103.643 1110.72,107.643 1103,108.5C 1087.95,104.676 1083.61,95.6763 1090,81.5C 1093.23,77.9793 1097.06,75.646 1101.5,74.5 Z M 1099.5,82.5 C 1101.86,82.3367 1104.19,82.5034 1106.5,83C 1102.3,86.8666 1098.47,91.0332 1095,95.5C 1094.6,94.1279 1094.1,92.7946 1093.5,91.5C 1094.74,87.9355 1096.74,84.9355 1099.5,82.5 Z M 1111.5,88.5 C 1112.8,97.3612 1108.8,101.194 1099.5,100C 1104,96.6642 1108,92.8309 1111.5,88.5 Z"/></g>
<g><path style="opacity:0.118" fill="#fefefe" d="M 475.5,99.5 C 486.846,100.016 493.179,105.849 494.5,117C 493.304,121.392 491.304,125.392 488.5,129C 479.766,134.955 471.599,134.122 464,126.5C 457.83,113.486 461.663,104.486 475.5,99.5 Z M 473.5,107.5 C 475.857,107.337 478.19,107.503 480.5,108C 476.298,111.867 472.465,116.033 469,120.5C 467.381,114.968 468.881,110.634 473.5,107.5 Z M 485.5,113.5 C 487.128,121.384 483.794,125.218 475.5,125C 475.167,124.667 474.833,124.333 474.5,124C 478.668,120.998 482.335,117.498 485.5,113.5 Z"/></g>
<g><path style="opacity:0.118" fill="#fefefe" d="M 1076.5,99.5 C 1087.85,100.016 1094.18,105.849 1095.5,117C 1094.3,121.392 1092.3,125.392 1089.5,129C 1080.77,134.955 1072.6,134.122 1065,126.5C 1058.83,113.486 1062.66,104.486 1076.5,99.5 Z M 1074.5,107.5 C 1076.86,107.337 1079.19,107.503 1081.5,108C 1077.3,111.867 1073.47,116.033 1070,120.5C 1068.38,114.968 1069.88,110.634 1074.5,107.5 Z M 1086.5,113.5 C 1088.13,121.384 1084.79,125.218 1076.5,125C 1076.17,124.667 1075.83,124.333 1075.5,124C 1079.67,120.998 1083.33,117.498 1086.5,113.5 Z"/></g>
<g><path style="opacity:0.114" fill="#fefffe" d="M 451.5,118.5 C 456.201,119.684 457.367,122.351 455,126.5C 454.333,129.167 454.333,131.833 455,134.5C 459,138.5 463,142.5 467,146.5C 467.781,147.944 467.614,149.277 466.5,150.5C 465.186,151.313 464.019,152.313 463,153.5C 457.256,148.427 452.256,142.76 448,136.5C 445.682,129.778 446.849,123.778 451.5,118.5 Z"/></g>
<g><path style="opacity:0.114" fill="#fefffe" d="M 1052.5,118.5 C 1057.2,119.684 1058.37,122.351 1056,126.5C 1055.33,129.167 1055.33,131.833 1056,134.5C 1060,138.5 1064,142.5 1068,146.5C 1068.78,147.944 1068.61,149.277 1067.5,150.5C 1066.19,151.313 1065.02,152.313 1064,153.5C 1058.26,148.427 1053.26,142.76 1049,136.5C 1046.68,129.778 1047.85,123.778 1052.5,118.5 Z"/></g>
<g><path style="opacity:0.114" fill="#fefffe" d="M 425.5,153.5 C 425.5,152.833 425.167,152.5 424.5,152.5C 424.5,151.833 424.167,151.5 423.5,151.5C 423.5,150.833 423.167,150.5 422.5,150.5C 422.5,149.833 422.167,149.5 421.5,149.5C 426.297,144.202 431.297,139.035 436.5,134C 439.284,133.583 441.284,134.75 442.5,137.5C 440.785,139.874 438.785,142.04 436.5,144C 442.904,148.397 448.738,153.564 454,159.5C 454.767,163.382 453.267,165.548 449.5,166C 443.232,160.405 437.732,154.239 433,147.5C 430.894,150.118 428.394,152.118 425.5,153.5 Z"/></g>
<g><path style="opacity:0.114" fill="#fefffe" d="M 1026.5,153.5 C 1026.5,152.833 1026.17,152.5 1025.5,152.5C 1025.5,151.833 1025.17,151.5 1024.5,151.5C 1024.5,150.833 1024.17,150.5 1023.5,150.5C 1023.5,149.833 1023.17,149.5 1022.5,149.5C 1027.3,144.202 1032.3,139.035 1037.5,134C 1040.28,133.583 1042.28,134.75 1043.5,137.5C 1041.79,139.874 1039.79,142.04 1037.5,144C 1043.9,148.397 1049.74,153.564 1055,159.5C 1055.77,163.382 1054.27,165.548 1050.5,166C 1044.23,160.405 1038.73,154.239 1034,147.5C 1031.89,150.118 1029.39,152.118 1026.5,153.5 Z"/></g>
<g><path style="opacity:0.119" fill="#fefffe" d="M 421.5,149.5 C 422.167,149.5 422.5,149.833 422.5,150.5C 423.167,150.5 423.5,150.833 423.5,151.5C 424.167,151.5 424.5,151.833 424.5,152.5C 425.167,152.5 425.5,152.833 425.5,153.5C 425.586,154.496 425.252,155.329 424.5,156C 430.235,159.727 435.402,164.227 440,169.5C 442.88,174.666 443.214,179.999 441,185.5C 438.165,191.981 434.998,191.981 431.5,185.5C 421.389,191.843 412.889,190.176 406,180.5C 403.771,174.669 404.105,169.002 407,163.5C 411.702,158.63 416.535,153.963 421.5,149.5 Z M 421.5,159.5 C 425.5,164.5 429.5,169.5 433.5,174.5C 429.787,177.537 425.787,180.204 421.5,182.5C 415.018,181.487 411.851,177.487 412,170.5C 414.284,166.051 417.451,162.384 421.5,159.5 Z"/></g>
<g><path style="opacity:0.119" fill="#fefffe" d="M 1022.5,149.5 C 1023.17,149.5 1023.5,149.833 1023.5,150.5C 1024.17,150.5 1024.5,150.833 1024.5,151.5C 1025.17,151.5 1025.5,151.833 1025.5,152.5C 1026.17,152.5 1026.5,152.833 1026.5,153.5C 1026.59,154.496 1026.25,155.329 1025.5,156C 1031.23,159.727 1036.4,164.227 1041,169.5C 1043.88,174.666 1044.21,179.999 1042,185.5C 1039.16,191.981 1036,191.981 1032.5,185.5C 1022.39,191.843 1013.89,190.176 1007,180.5C 1004.77,174.669 1005.1,169.002 1008,163.5C 1012.7,158.63 1017.54,153.963 1022.5,149.5 Z M 1022.5,159.5 C 1026.5,164.5 1030.5,169.5 1034.5,174.5C 1030.79,177.537 1026.79,180.204 1022.5,182.5C 1016.02,181.487 1012.85,177.487 1013,170.5C 1015.28,166.051 1018.45,162.384 1022.5,159.5 Z"/></g>
<g><path style="opacity:0.121" fill="#fefefe" d="M 391.5,181.5 C 395.967,181.133 400.3,181.633 404.5,183C 409.349,187.681 414.015,192.515 418.5,197.5C 417.284,200.25 415.284,201.417 412.5,201C 408.833,197.333 405.167,193.667 401.5,190C 393.554,186.919 388.554,189.586 386.5,198C 387.717,199.648 388.55,201.481 389,203.5C 393.214,207.378 397.048,211.545 400.5,216C 399.708,217.96 398.375,219.46 396.5,220.5C 389.53,215.037 383.864,208.537 379.5,201C 379.007,191.832 383.007,185.332 391.5,181.5 Z"/></g>
<g><path style="opacity:0.121" fill="#fefefe" d="M 992.5,181.5 C 996.967,181.133 1001.3,181.633 1005.5,183C 1010.35,187.681 1015.02,192.515 1019.5,197.5C 1018.28,200.25 1016.28,201.417 1013.5,201C 1009.83,197.333 1006.17,193.667 1002.5,190C 994.554,186.919 989.554,189.586 987.5,198C 988.717,199.648 989.55,201.481 990,203.5C 994.214,207.378 998.048,211.545 1001.5,216C 1000.71,217.96 999.375,219.46 997.5,220.5C 990.53,215.037 984.864,208.537 980.5,201C 980.007,191.832 984.007,185.332 992.5,181.5 Z"/></g>
<g><path style="opacity:0.118" fill="#fefffe" d="M 368.5,205.5 C 383.726,205.972 389.893,213.639 387,228.5C 384.42,233.084 381.087,237.084 377,240.5C 376.667,244.167 376.333,247.833 376,251.5C 366.833,242.333 357.667,233.167 348.5,224C 351.725,218.722 356.058,213.722 361.5,209C 363.713,207.384 366.047,206.217 368.5,205.5 Z M 371.5,212.5 C 379.139,214.094 381.972,218.761 380,226.5C 377,229.5 374,232.5 371,235.5C 366.801,230.966 362.301,226.799 357.5,223C 361.272,218.029 365.939,214.529 371.5,212.5 Z"/></g>
<g><path style="opacity:0.118" fill="#fefffe" d="M 969.5,205.5 C 984.726,205.972 990.893,213.639 988,228.5C 985.42,233.084 982.087,237.084 978,240.5C 977.667,244.167 977.333,247.833 977,251.5C 967.833,242.333 958.667,233.167 949.5,224C 952.725,218.722 957.058,213.722 962.5,209C 964.713,207.384 967.047,206.217 969.5,205.5 Z M 972.5,212.5 C 980.139,214.094 982.972,218.761 981,226.5C 978,229.5 975,232.5 972,235.5C 967.801,230.966 963.301,226.799 958.5,223C 962.272,218.029 966.939,214.529 972.5,212.5 Z"/></g>
<g><path style="opacity:0.137" fill="#fefefe" d="M 299.5,263.5 C 321.606,265.107 333.606,276.94 335.5,299C 334.103,317.676 324.77,329.676 307.5,335C 288.682,338.843 274.849,332.009 266,314.5C 260.204,293.543 266.704,277.71 285.5,267C 290.224,265.506 294.891,264.339 299.5,263.5 Z M 298.5,311.5 C 302.082,305.283 303.249,298.617 302,291.5C 301.361,288.888 300.194,286.554 298.5,284.5C 290.411,291.001 287.078,299.334 288.5,309.5C 278.512,304.854 275.012,297.188 278,286.5C 282.779,275.86 290.946,271.693 302.5,274C 310.343,277.172 314.676,283.005 315.5,291.5C 314.139,301.859 308.472,308.525 298.5,311.5 Z"/></g>
<g><path style="opacity:0.137" fill="#fefefe" d="M 900.5,263.5 C 922.606,265.107 934.606,276.94 936.5,299C 935.103,317.676 925.77,329.676 908.5,335C 889.682,338.843 875.849,332.009 867,314.5C 861.204,293.543 867.704,277.71 886.5,267C 891.224,265.506 895.891,264.339 900.5,263.5 Z M 899.5,311.5 C 903.082,305.283 904.249,298.617 903,291.5C 902.361,288.888 901.194,286.554 899.5,284.5C 891.411,291.001 888.078,299.334 889.5,309.5C 879.512,304.854 876.012,297.188 879,286.5C 883.779,275.86 891.946,271.693 903.5,274C 911.343,277.172 915.676,283.005 916.5,291.5C 915.139,301.859 909.472,308.525 899.5,311.5 Z"/></g>
<g><path style="opacity:0.004" fill="#fefffe" d="M 333.5,333.5 C 332.833,332.167 332.833,332.167 333.5,333.5 Z"/></g>
<g><path style="opacity:0.004" fill="#fefffe" d="M 934.5,333.5 C 933.833,332.167 933.833,332.167 934.5,333.5 Z"/></g>
<g><path style="opacity:0.004" fill="#fefffe" d="M 333.5,333.5 C 334.167,333.5 334.5,333.833 334.5,334.5C 334.167,334.167 333.833,333.833 333.5,333.5 Z"/></g>
<g><path style="opacity:0.004" fill="#fefffe" d="M 934.5,333.5 C 935.167,333.5 935.5,333.833 935.5,334.5C 935.167,334.167 934.833,333.833 934.5,333.5 Z"/></g>
<g><path style="opacity:0.021" fill="#fefffe" d="M 334.5,334.5 C 346.519,342.672 357.852,351.839 368.5,362C 392.702,386.035 416.702,410.201 440.5,434.5C 436.5,434.5 432.5,434.5 428.5,434.5C 404.008,408.534 378.841,383.201 353,358.5C 347.551,349.929 341.384,341.929 334.5,334.5 Z"/></g>
<g><path style="opacity:0.022" fill="#fefffe" d="M 935.5,334.5 C 947.519,342.672 958.852,351.839 969.5,362C 1033.33,425.833 1097.17,489.667 1161,553.5C 1167.79,563.412 1175.29,572.745 1183.5,581.5C 1178.09,577.6 1173.09,573.1 1168.5,568C 1164.83,565.667 1161.17,563.333 1157.5,561C 1089.31,493.807 1021.47,426.307 954,358.5C 948.551,349.929 942.384,341.929 935.5,334.5 Z"/></g>
<g><path style="opacity:0.12" fill="#fefffe" d="M 219.5,354.5 C 233.364,354.196 239.864,360.862 239,374.5C 235.145,386.132 227.312,389.965 215.5,386C 203.892,376.776 203.558,367.109 214.5,357C 216.315,356.243 217.981,355.41 219.5,354.5 Z M 222.5,361.5 C 223.922,361.709 225.255,362.209 226.5,363C 222.298,366.867 218.465,371.033 215,375.5C 213.034,368.432 215.534,363.765 222.5,361.5 Z M 231.5,367.5 C 233.097,377.729 228.764,381.562 218.5,379C 223.598,376.071 227.931,372.238 231.5,367.5 Z"/></g>
<g><path style="opacity:0.12" fill="#fefffe" d="M 820.5,354.5 C 834.364,354.196 840.864,360.862 840,374.5C 836.145,386.132 828.312,389.965 816.5,386C 804.892,376.776 804.558,367.109 815.5,357C 817.315,356.243 818.981,355.41 820.5,354.5 Z M 823.5,361.5 C 824.922,361.709 826.255,362.209 827.5,363C 823.298,366.867 819.465,371.033 816,375.5C 814.034,368.432 816.534,363.765 823.5,361.5 Z M 832.5,367.5 C 834.097,377.729 829.764,381.562 819.5,379C 824.598,376.071 828.931,372.238 832.5,367.5 Z"/></g>
<g><path style="opacity:0.12" fill="#fefefe" d="M 193.5,379.5 C 208.792,378.958 215.625,386.292 214,401.5C 209.156,410.894 201.656,414.061 191.5,411C 182.826,406.132 179.992,398.965 183,389.5C 185.738,385.26 189.238,381.926 193.5,379.5 Z M 195.5,386.5 C 197.924,386.635 199.924,386.968 201.5,387.5C 197.849,391.652 194.016,395.652 190,399.5C 188.571,393.7 190.404,389.367 195.5,386.5 Z M 206.5,392.5 C 208.296,402.203 204.296,406.036 194.5,404C 199.002,400.664 203.002,396.831 206.5,392.5 Z"/></g>
<g><path style="opacity:0.12" fill="#fefefe" d="M 794.5,379.5 C 809.792,378.958 816.625,386.292 815,401.5C 810.156,410.894 802.656,414.061 792.5,411C 783.826,406.132 780.992,398.965 784,389.5C 786.738,385.26 790.238,381.926 794.5,379.5 Z M 796.5,386.5 C 798.924,386.635 800.924,386.968 802.5,387.5C 798.849,391.652 795.016,395.652 791,399.5C 789.571,393.7 791.404,389.367 796.5,386.5 Z M 807.5,392.5 C 809.296,402.203 805.296,406.036 795.5,404C 800.002,400.664 804.002,396.831 807.5,392.5 Z"/></g>
<g><path style="opacity:0.116" fill="#fefffe" d="M 172.5,398.5 C 178.436,400.837 179.103,404.337 174.5,409C 174.57,410.624 175.07,412.457 176,414.5C 180,418.5 184,422.5 188,426.5C 188.167,430.333 186.333,432.167 182.5,432C 177.254,427.425 172.754,422.258 169,416.5C 166.418,409.729 167.585,403.729 172.5,398.5 Z"/></g>
<g><path style="opacity:0.116" fill="#fefffe" d="M 773.5,398.5 C 779.436,400.837 780.103,404.337 775.5,409C 775.57,410.624 776.07,412.457 777,414.5C 781,418.5 785,422.5 789,426.5C 789.167,430.333 787.333,432.167 783.5,432C 778.254,427.425 773.754,422.258 770,416.5C 767.418,409.729 768.585,403.729 773.5,398.5 Z"/></g>
<g><path style="opacity:0.118" fill="#fefffe" d="M 158.5,412.5 C 160.479,413.812 162.145,415.479 163.5,417.5C 161.833,419.5 160.167,421.5 158.5,423.5C 164.152,428.652 169.652,433.985 175,439.5C 175.167,443.333 173.333,445.167 169.5,445C 164,439.5 158.5,434 153,428.5C 150.984,430.684 148.817,432.684 146.5,434.5C 151.851,440.017 157.018,445.684 162,451.5C 164.702,458.881 163.202,465.215 157.5,470.5C 155.041,469.209 153.541,467.209 153,464.5C 151.421,466.041 149.587,467.208 147.5,468C 131.55,470.383 124.383,463.55 126,447.5C 126.667,446.167 127.333,444.833 128,443.5C 138.369,433.298 148.535,422.965 158.5,412.5 Z M 154.5,454.5 C 151.775,455.713 149.441,457.546 147.5,460C 139.5,463.334 134.5,460.834 132.5,452.5C 134.235,447.244 137.402,442.911 142,439.5C 146.401,444.393 150.568,449.393 154.5,454.5 Z"/></g>
<g><path style="opacity:0.112" fill="#fefffe" d="M 770.5,434.5 C 766.833,434.5 763.167,434.5 759.5,434.5C 757.873,432.37 756.04,430.37 754,428.5C 751.937,430.734 749.771,432.734 747.5,434.5C 744.5,434.5 741.5,434.5 738.5,434.5C 745.464,427.035 752.631,419.702 760,412.5C 761.685,414.017 763.185,415.684 764.5,417.5C 762.833,419.5 761.167,421.5 759.5,423.5C 763.521,426.854 767.188,430.521 770.5,434.5 Z M 759.5,434.5 C 755.5,434.5 751.5,434.5 747.5,434.5C 749.771,432.734 751.937,430.734 754,428.5C 756.04,430.37 757.873,432.37 759.5,434.5 Z"/></g>
<g><path style="opacity:0.998" fill="#fec301" d="M 428.5,434.5 C 432.5,434.5 436.5,434.5 440.5,434.5C 539.833,434.5 639.167,434.5 738.5,434.5C 741.5,434.5 744.5,434.5 747.5,434.5C 751.5,434.5 755.5,434.5 759.5,434.5C 763.167,434.5 766.833,434.5 770.5,434.5C 839.167,434.333 907.834,434.5 976.5,435C 1004.45,440.947 1021.95,457.78 1029,485.5C 1030.45,523.472 1030.95,561.472 1030.5,599.5C 991.5,599.5 952.5,599.5 913.5,599.5C 912.167,599.5 910.833,599.5 909.5,599.5C 918.457,588.706 927.624,578.039 937,567.5C 941.082,561.813 939.915,557.813 933.5,555.5C 934.026,553.77 935.026,552.436 936.5,551.5C 937.043,551.44 937.376,551.107 937.5,550.5C 919.671,549.173 902.005,549.173 884.5,550.5C 871.833,565.167 859.167,579.833 846.5,594.5C 845.668,561.669 845.168,528.669 845,495.5C 844.226,489.224 840.726,485.891 834.5,485.5C 834.768,483.901 834.434,482.568 833.5,481.5C 819.167,481.5 804.833,481.5 790.5,481.5C 789.501,520.663 789.168,559.996 789.5,599.5C 785.116,599.826 780.783,599.492 776.5,598.5C 770.349,578.355 758.016,563.355 739.5,553.5C 723.9,547.217 707.9,545.217 691.5,547.5C 657.457,549.542 635.457,566.875 625.5,599.5C 618.5,599.5 611.5,599.5 604.5,599.5C 603.925,586.285 603.091,572.952 602,559.5C 600.189,555.345 597.023,553.345 592.5,553.5C 592.5,552.5 592.5,551.5 592.5,550.5C 577.833,550.5 563.167,550.5 548.5,550.5C 547.504,566.658 547.17,582.991 547.5,599.5C 538.5,599.5 529.5,599.5 520.5,599.5C 520.167,599.5 519.833,599.5 519.5,599.5C 519.667,564.498 519.5,529.498 519,494.5C 517.609,490.275 514.776,487.608 510.5,486.5C 510.784,484.585 510.451,482.919 509.5,481.5C 495.167,481.5 480.833,481.5 466.5,481.5C 465.501,520.663 465.168,559.996 465.5,599.5C 416.5,599.5 367.5,599.5 318.5,599.5C 317.833,599.5 317.167,599.5 316.5,599.5C 316.266,583.875 319.766,569.208 327,555.5C 339.308,542.466 354.142,538.632 371.5,544C 376.446,545.72 380.613,548.554 384,552.5C 387.191,557.603 389.691,562.936 391.5,568.5C 391.5,568.833 391.5,569.167 391.5,569.5C 391.687,576.187 395.021,580.354 401.5,582C 414.5,582.667 427.5,582.667 440.5,582C 446.938,580.142 449.938,575.809 449.5,569C 443.268,527.769 419.935,502.102 379.5,492C 372.555,490.77 365.555,490.27 358.5,490.5C 300.625,489.2 267.125,517.2 258,574.5C 256.877,582.797 256.377,591.13 256.5,599.5C 256.167,599.5 255.833,599.5 255.5,599.5C 226.5,599.5 197.5,599.5 168.5,599.5C 168.051,561.472 168.551,523.472 170,485.5C 177.053,457.78 194.553,440.947 222.5,435C 291.166,434.5 359.833,434.333 428.5,434.5 Z"/></g>
<g><path style="opacity:0.118" fill="#fefefe" d="M 114.5,460.5 C 116.877,460.784 119.044,460.784 121,460.5C 128.225,464.555 134.392,469.888 139.5,476.5C 138.185,478.316 136.685,479.983 135,481.5C 130.199,477.701 125.699,473.534 121.5,469C 114.083,466.887 109.416,469.72 107.5,477.5C 108.098,478.795 108.598,480.128 109,481.5C 113.547,485.711 117.714,490.211 121.5,495C 120.667,497.167 119.167,498.667 117,499.5C 112.378,495.881 108.045,491.881 104,487.5C 97.5981,474.528 101.098,465.528 114.5,460.5 Z"/></g>
<g><path style="opacity:1" fill="#000000" d="M 466.5,481.5 C 480.833,481.5 495.167,481.5 509.5,481.5C 509.5,547.167 509.5,612.833 509.5,678.5C 500.365,674.711 493.199,677.045 488,685.5C 484.244,698.323 488.91,705.99 502,708.5C 504.665,708.332 507.165,707.665 509.5,706.5C 509.5,709.167 509.5,711.833 509.5,714.5C 501.167,714.5 492.833,714.5 484.5,714.5C 486.348,712.484 488.015,710.317 489.5,708C 488.513,705.679 486.846,704.013 484.5,703C 478.095,700.362 472.262,701.195 467,705.5C 466.5,630.834 466.333,556.167 466.5,481.5 Z"/></g>
<g><path style="opacity:1" fill="#000000" d="M 790.5,481.5 C 804.833,481.5 819.167,481.5 833.5,481.5C 833.167,524.172 833.5,566.839 834.5,609.5C 835.107,609.376 835.44,609.043 835.5,608.5C 837.592,605.319 839.925,602.319 842.5,599.5C 843.833,597.833 845.167,596.167 846.5,594.5C 859.167,579.833 871.833,565.167 884.5,550.5C 902.008,550.17 919.341,550.503 936.5,551.5C 935.026,552.436 934.026,553.77 933.5,555.5C 930.041,558.415 927.041,561.748 924.5,565.5C 909.018,583.153 893.685,600.986 878.5,619C 899.427,650.929 920.76,682.596 942.5,714C 925.837,714.5 909.17,714.667 892.5,714.5C 880.167,695.833 867.833,677.167 855.5,658.5C 854.252,655.004 852.252,652.004 849.5,649.5C 844.181,654.318 839.015,659.318 834,664.5C 833.5,681.163 833.333,697.83 833.5,714.5C 822.833,714.5 812.167,714.5 801.5,714.5C 798.5,714.5 795.5,714.5 792.5,714.5C 790.503,637.174 789.836,559.507 790.5,481.5 Z"/></g>
<g><path style="opacity:0.119" fill="#fefffe" d="M 87.5,485.5 C 98.8091,483.998 105.976,488.665 109,499.5C 109.458,503.342 108.791,507.009 107,510.5C 103.5,514 100,517.5 96.5,521C 97.7874,524.125 97.7874,527.291 96.5,530.5C 87.1667,521.833 78.1667,512.833 69.5,503.5C 74.5731,496.427 80.5731,490.427 87.5,485.5 Z M 89.5,492.5 C 99.8701,492.702 103.37,497.702 100,507.5C 97.3333,510.167 94.6667,512.833 92,515.5C 87.6513,511.318 83.4846,506.985 79.5,502.5C 82.5481,498.785 85.8815,495.452 89.5,492.5 Z"/></g>
<g><path style="opacity:1" fill="#030200" d="M 566.5,485.5 C 575.906,484.215 583.906,486.882 590.5,493.5C 595.614,502.719 595.78,512.053 591,521.5C 582.879,530.147 573.046,532.814 561.5,529.5C 553.134,527.134 547.8,521.8 545.5,513.5C 543.917,501.276 548.584,492.442 559.5,487C 561.813,486.338 564.146,485.838 566.5,485.5 Z"/></g>
<g><path style="opacity:1" fill="#f0b800" d="M 566.5,485.5 C 584.345,481.173 597.511,487.173 606,503.5C 611.708,524.923 603.874,538.423 582.5,544C 559.357,546.676 547.024,536.509 545.5,513.5C 547.8,521.8 553.134,527.134 561.5,529.5C 562.289,532.434 564.289,534.268 567.5,535C 578.069,538.28 587.569,536.446 596,529.5C 601.74,520.388 601.907,511.221 596.5,502C 597.451,501.282 597.617,500.449 597,499.5C 595.465,496.706 593.298,494.706 590.5,493.5C 583.906,486.882 575.906,484.215 566.5,485.5 Z"/></g>
<g><path style="opacity:1" fill="#010100" d="M 358.5,490.5 C 380.319,492.439 399.319,500.772 415.5,515.5C 427.682,529.538 434.682,545.872 436.5,564.5C 436.5,565.833 436.5,567.167 436.5,568.5C 421.5,568.5 406.5,568.5 391.5,568.5C 391.34,561.339 389.673,554.673 386.5,548.5C 383.102,540.102 377.102,534.436 368.5,531.5C 334.048,520.977 312.882,533.31 305,568.5C 302.097,589.118 301.763,609.784 304,630.5C 304.459,643.209 308.126,654.876 315,665.5C 316.371,667.041 317.871,668.375 319.5,669.5C 325.077,675.622 332.077,679.122 340.5,680C 351.118,681.633 361.118,680.133 370.5,675.5C 380.374,671.446 386.541,664.113 389,653.5C 389.567,650.832 390.067,648.166 390.5,645.5C 391.434,644.432 391.768,643.099 391.5,641.5C 406.5,641.5 421.5,641.5 436.5,641.5C 436.5,643.167 436.5,644.833 436.5,646.5C 436.167,648.5 435.833,650.5 435.5,652.5C 426.056,691.092 401.389,712.592 361.5,717C 352.506,717.5 343.506,717.666 334.5,717.5C 312.195,714.519 293.862,704.519 279.5,687.5C 266.391,669.35 258.891,649.017 257,626.5C 256.5,617.506 256.334,608.506 256.5,599.5C 256.377,591.13 256.877,582.797 258,574.5C 267.125,517.2 300.625,489.2 358.5,490.5 Z"/></g>
<g><path style="opacity:1" fill="#e4af00" d="M 834.5,485.5 C 840.726,485.891 844.226,489.224 845,495.5C 845.168,528.669 845.668,561.669 846.5,594.5C 845.167,596.167 843.833,597.833 842.5,599.5C 841.167,599.5 839.833,599.5 838.5,599.5C 838.667,565.165 838.5,530.832 838,496.5C 837.34,494.676 836.173,493.343 834.5,492.5C 834.5,490.167 834.5,487.833 834.5,485.5 Z"/></g>
<g><path style="opacity:1" fill="#f1b900" d="M 358.5,490.5 C 365.555,490.27 372.555,490.77 379.5,492C 419.935,502.102 443.268,527.769 449.5,569C 449.938,575.809 446.938,580.142 440.5,582C 427.5,582.667 414.5,582.667 401.5,582C 395.021,580.354 391.687,576.187 391.5,569.5C 393.5,569.5 395.5,569.5 397.5,569.5C 397.84,571.679 398.84,573.512 400.5,575C 413.061,577.845 425.727,578.178 438.5,576C 440.286,575.215 441.786,574.049 443,572.5C 443.033,555.598 437.699,540.598 427,527.5C 425.392,522.874 422.559,519.04 418.5,516C 417.552,515.517 416.552,515.351 415.5,515.5C 399.319,500.772 380.319,492.439 358.5,490.5 Z"/></g>
<g><path style="opacity:1" fill="#685000" d="M 833.5,481.5 C 834.434,482.568 834.768,483.901 834.5,485.5C 834.5,487.833 834.5,490.167 834.5,492.5C 834.168,531.337 834.501,570.004 835.5,608.5C 835.44,609.043 835.107,609.376 834.5,609.5C 833.5,566.839 833.167,524.172 833.5,481.5 Z"/></g>
<g><path style="opacity:1" fill="#d1a000" d="M 834.5,492.5 C 836.173,493.343 837.34,494.676 838,496.5C 838.5,530.832 838.667,565.165 838.5,599.5C 839.833,599.5 841.167,599.5 842.5,599.5C 839.925,602.319 837.592,605.319 835.5,608.5C 834.501,570.004 834.168,531.337 834.5,492.5 Z"/></g>
<g><path style="opacity:1" fill="#d3a200" d="M 590.5,493.5 C 593.298,494.706 595.465,496.706 597,499.5C 597.617,500.449 597.451,501.282 596.5,502C 601.907,511.221 601.74,520.388 596,529.5C 587.569,536.446 578.069,538.28 567.5,535C 564.289,534.268 562.289,532.434 561.5,529.5C 573.046,532.814 582.879,530.147 591,521.5C 595.78,512.053 595.614,502.719 590.5,493.5 Z"/></g>
<g><path style="opacity:1" fill="#dfac00" d="M 510.5,486.5 C 514.776,487.608 517.609,490.275 519,494.5C 519.5,529.498 519.667,564.498 519.5,599.5C 517.833,599.5 516.167,599.5 514.5,599.5C 513.167,599.5 511.833,599.5 510.5,599.5C 510.5,561.833 510.5,524.167 510.5,486.5 Z"/></g>
<g><path style="opacity:1" fill="#f1b900" d="M 386.5,548.5 C 389.673,554.673 391.34,561.339 391.5,568.5C 389.691,562.936 387.191,557.603 384,552.5C 380.613,548.554 376.446,545.72 371.5,544C 354.142,538.632 339.308,542.466 327,555.5C 319.766,569.208 316.266,583.875 316.5,599.5C 314.833,599.5 313.167,599.5 311.5,599.5C 310.642,583.622 313.809,568.622 321,554.5C 330.039,543.4 341.872,537.733 356.5,537.5C 368.03,537.276 378.03,540.943 386.5,548.5 Z"/></g>
<g><path style="opacity:1" fill="#020100" d="M 691.5,547.5 C 712.234,545.925 730.568,551.592 746.5,564.5C 759.172,577.523 765.505,593.19 765.5,611.5C 752.833,611.5 740.167,611.5 727.5,611.5C 726.167,611.5 724.833,611.5 723.5,611.5C 724.236,598.952 718.903,590.286 707.5,585.5C 689.91,578.983 677.077,584.316 669,601.5C 667.587,605.739 666.587,610.072 666,614.5C 665.138,628.204 665.472,641.871 667,655.5C 668.352,664.041 672.186,671.207 678.5,677C 679.094,677.464 679.761,677.631 680.5,677.5C 682.273,678.892 684.273,680.059 686.5,681C 699.592,684.106 710.759,680.939 720,671.5C 722.421,667.149 723.588,662.483 723.5,657.5C 737.5,657.5 751.5,657.5 765.5,657.5C 765.5,658.5 765.5,659.5 765.5,660.5C 765.326,662.861 764.993,665.194 764.5,667.5C 758.526,692.308 743.193,708.142 718.5,715C 696.819,720.055 676.152,717.555 656.5,707.5C 645.402,700.403 636.735,691.07 630.5,679.5C 620.486,653.352 618.819,626.685 625.5,599.5C 635.457,566.875 657.457,549.542 691.5,547.5 Z"/></g>
<g><path style="opacity:1" fill="#bc9000" d="M 884.5,550.5 C 902.005,549.173 919.671,549.173 937.5,550.5C 937.376,551.107 937.043,551.44 936.5,551.5C 919.341,550.503 902.008,550.17 884.5,550.5 Z"/></g>
<g><path style="opacity:1" fill="#d6a500" d="M 933.5,555.5 C 939.915,557.813 941.082,561.813 937,567.5C 927.624,578.039 918.457,588.706 909.5,599.5C 905.774,599.823 902.107,599.489 898.5,598.5C 906.853,589.315 915.02,579.981 923,570.5C 924.009,568.975 924.509,567.308 924.5,565.5C 927.041,561.748 930.041,558.415 933.5,555.5 Z"/></g>
<g><path style="opacity:1" fill="#9c7800" d="M 436.5,564.5 C 437.451,565.919 437.784,567.585 437.5,569.5C 424.167,569.5 410.833,569.5 397.5,569.5C 395.5,569.5 393.5,569.5 391.5,569.5C 391.5,569.167 391.5,568.833 391.5,568.5C 406.5,568.5 421.5,568.5 436.5,568.5C 436.5,567.167 436.5,565.833 436.5,564.5 Z"/></g>
<g><path style="opacity:1" fill="#ddaa00" d="M 415.5,515.5 C 416.552,515.351 417.552,515.517 418.5,516C 422.559,519.04 425.392,522.874 427,527.5C 437.699,540.598 443.033,555.598 443,572.5C 441.786,574.049 440.286,575.215 438.5,576C 425.727,578.178 413.061,577.845 400.5,575C 398.84,573.512 397.84,571.679 397.5,569.5C 410.833,569.5 424.167,569.5 437.5,569.5C 437.784,567.585 437.451,565.919 436.5,564.5C 434.682,545.872 427.682,529.538 415.5,515.5 Z"/></g>
<g><path style="opacity:0.004" fill="#fefffe" d="M 1183.5,581.5 C 1184.17,581.5 1184.5,581.833 1184.5,582.5C 1184.17,582.167 1183.83,581.833 1183.5,581.5 Z"/></g>
<g><path style="opacity:0.004" fill="#fefffe" d="M 1184.5,582.5 C 1185.17,582.5 1185.5,582.833 1185.5,583.5C 1185.17,583.167 1184.83,582.833 1184.5,582.5 Z"/></g>
<g><path style="opacity:0.004" fill="#fefffe" d="M 1185.5,583.5 C 1186.83,584.167 1186.83,584.167 1185.5,583.5 Z"/></g>
<g><path style="opacity:1" fill="#c59300" d="M 368.5,531.5 C 337.665,526.487 317.832,538.82 309,568.5C 306.474,578.684 305.307,589.017 305.5,599.5C 306.833,599.5 308.167,599.5 309.5,599.5C 308.506,618.386 310.006,637.052 314,655.5C 315.569,660.3 317.403,664.966 319.5,669.5C 317.871,668.375 316.371,667.041 315,665.5C 308.126,654.876 304.459,643.209 304,630.5C 301.763,609.784 302.097,589.118 305,568.5C 312.882,533.31 334.048,520.977 368.5,531.5 Z"/></g>
<g><path style="opacity:1" fill="#e2a900" d="M 368.5,531.5 C 377.102,534.436 383.102,540.102 386.5,548.5C 378.03,540.943 368.03,537.276 356.5,537.5C 341.872,537.733 330.039,543.4 321,554.5C 313.809,568.622 310.642,583.622 311.5,599.5C 313.167,599.5 314.833,599.5 316.5,599.5C 317.167,599.5 317.833,599.5 318.5,599.5C 317.768,616.643 318.934,633.643 322,650.5C 325.623,669.302 336.957,678.302 356,677.5C 360.85,676.886 365.684,676.219 370.5,675.5C 361.118,680.133 351.118,681.633 340.5,680C 332.077,679.122 325.077,675.622 319.5,669.5C 317.403,664.966 315.569,660.3 314,655.5C 310.006,637.052 308.506,618.386 309.5,599.5C 308.167,599.5 306.833,599.5 305.5,599.5C 305.307,589.017 306.474,578.684 309,568.5C 317.832,538.82 337.665,526.487 368.5,531.5 Z"/></g>
<g><path style="opacity:1" fill="#b88a0a" d="M 509.5,481.5 C 510.451,482.919 510.784,484.585 510.5,486.5C 510.5,524.167 510.5,561.833 510.5,599.5C 511.833,599.5 513.167,599.5 514.5,599.5C 514.829,628.074 514.495,656.574 513.5,685C 514.552,686.119 515.719,686.619 517,686.5C 517.37,696.913 516.703,707.246 515,717.5C 513.829,718.893 512.329,719.727 510.5,720C 507.667,720.167 504.833,720.333 502,720.5C 498.724,720.442 495.724,719.776 493,718.5C 492.51,719.793 492.343,721.127 492.5,722.5C 487.767,722.777 483.1,722.443 478.5,721.5C 475.395,725.621 472.728,725.454 470.5,721C 471.985,718.683 473.652,716.516 475.5,714.5C 475.833,714.5 476.167,714.5 476.5,714.5C 479.167,714.5 481.833,714.5 484.5,714.5C 492.833,714.5 501.167,714.5 509.5,714.5C 509.5,711.833 509.5,709.167 509.5,706.5C 509.5,704.167 509.5,701.833 509.5,699.5C 509.5,696.167 509.5,692.833 509.5,689.5C 509.5,685.833 509.5,682.167 509.5,678.5C 509.5,612.833 509.5,547.167 509.5,481.5 Z"/></g>
<g><path style="opacity:0.996" fill="#edaf00" d="M 790.5,481.5 C 789.836,559.507 790.503,637.174 792.5,714.5C 792.824,720.322 795.824,723.822 801.5,725C 813.167,725.667 824.833,725.667 836.5,725C 841.333,724.167 844.167,721.333 845,716.5C 845.333,703.5 845.667,690.5 846,677.5C 847.064,675.041 848.398,672.708 850,670.5C 853.891,666.404 857.391,666.737 860.5,671.5C 871.668,688.491 883.001,705.324 894.5,722C 896.717,723.275 899.051,724.275 901.5,725C 915.5,725.667 929.5,725.667 943.5,725C 947.889,724.362 949.889,721.862 949.5,717.5C 949.257,714.344 948.424,711.344 947,708.5C 929.592,682.472 912.092,656.472 894.5,630.5C 893.292,626.957 893.792,623.624 896,620.5C 902.385,613.949 908.218,606.949 913.5,599.5C 952.5,599.5 991.5,599.5 1030.5,599.5C 1030.95,637.528 1030.45,675.528 1029,713.5C 1021.95,741.22 1004.45,758.053 976.5,764C 907.834,764.5 839.167,764.667 770.5,764.5C 766.5,764.5 762.5,764.5 758.5,764.5C 656.833,764.5 555.167,764.5 453.5,764.5C 451.5,764.5 449.5,764.5 447.5,764.5C 443.167,764.5 438.833,764.5 434.5,764.5C 431.167,764.5 427.833,764.5 424.5,764.5C 421.833,764.5 419.167,764.5 416.5,764.5C 413.167,764.5 409.833,764.5 406.5,764.5C 345.166,764.667 283.832,764.5 222.5,764C 194.553,758.053 177.053,741.22 170,713.5C 168.551,675.528 168.051,637.528 168.5,599.5C 197.5,599.5 226.5,599.5 255.5,599.5C 253.606,623.339 256.106,646.672 263,669.5C 283.283,718.074 319.783,738.908 372.5,732C 418.191,725.809 444.524,699.976 451.5,654.5C 452.031,646.368 448.364,641.534 440.5,640C 426.994,639.173 413.66,639.34 400.5,640.5C 397.167,640.5 393.833,640.5 390.5,640.5C 390.5,642.167 390.5,643.833 390.5,645.5C 390.067,648.166 389.567,650.832 389,653.5C 386.541,664.113 380.374,671.446 370.5,675.5C 365.684,676.219 360.85,676.886 356,677.5C 336.957,678.302 325.623,669.302 322,650.5C 318.934,633.643 317.768,616.643 318.5,599.5C 367.5,599.5 416.5,599.5 465.5,599.5C 465.5,637.833 465.5,676.167 465.5,714.5C 466.5,714.5 467.5,714.5 468.5,714.5C 470.833,714.5 473.167,714.5 475.5,714.5C 473.652,716.516 471.985,718.683 470.5,721C 472.728,725.454 475.395,725.621 478.5,721.5C 483.1,722.443 487.767,722.777 492.5,722.5C 492.389,723.117 492.056,723.617 491.5,724C 498.882,724.747 506.215,724.414 513.5,723C 516,721.833 517.833,720 519,717.5C 520.464,678.201 520.964,638.868 520.5,599.5C 529.5,599.5 538.5,599.5 547.5,599.5C 547.17,582.991 547.504,566.658 548.5,550.5C 548.168,605.336 548.501,660.003 549.5,714.5C 550.267,721.1 553.934,724.934 560.5,726C 571.5,726.667 582.5,726.667 593.5,726C 597.965,725.687 601.132,723.521 603,719.5C 604.477,679.548 604.977,639.548 604.5,599.5C 611.5,599.5 618.5,599.5 625.5,599.5C 618.819,626.685 620.486,653.352 630.5,679.5C 640.207,708.211 660.207,724.377 690.5,728C 701.544,728.85 712.544,728.517 723.5,727C 723.93,726.08 724.264,725.247 724.5,724.5C 725.548,725.383 726.715,726.05 728,726.5C 755.248,718.42 771.415,700.42 776.5,672.5C 776.588,664.925 772.921,660.925 765.5,660.5C 765.5,659.5 765.5,658.5 765.5,657.5C 751.5,657.5 737.5,657.5 723.5,657.5C 723.588,662.483 722.421,667.149 720,671.5C 710.759,680.939 699.592,684.106 686.5,681C 684.273,680.059 682.273,678.892 680.5,677.5C 677.277,673.044 675.11,668.044 674,662.5C 669.934,642.763 671.267,623.429 678,604.5C 679.046,602.91 680.213,601.41 681.5,600C 679.744,599.798 678.078,599.298 676.5,598.5C 684.395,588.53 694.728,584.197 707.5,585.5C 718.903,590.286 724.236,598.952 723.5,611.5C 724.833,611.5 726.167,611.5 727.5,611.5C 729.264,617.426 733.264,620.592 739.5,621C 749.212,621.824 758.879,621.491 768.5,620C 772.823,617.894 774.823,614.394 774.5,609.5C 774.194,606.468 773.694,603.468 773,600.5C 768.505,592.844 764.505,584.844 761,576.5C 756.856,571.51 752.023,567.51 746.5,564.5C 730.568,551.592 712.234,545.925 691.5,547.5C 707.9,545.217 723.9,547.217 739.5,553.5C 758.016,563.355 770.349,578.355 776.5,598.5C 780.783,599.492 785.116,599.826 789.5,599.5C 789.168,559.996 789.501,520.663 790.5,481.5 Z"/></g>
<g><path style="opacity:1" fill="#e2a800" d="M 592.5,553.5 C 597.023,553.345 600.189,555.345 602,559.5C 603.091,572.952 603.925,586.285 604.5,599.5C 604.977,639.548 604.477,679.548 603,719.5C 601.132,723.521 597.965,725.687 593.5,726C 582.5,726.667 571.5,726.667 560.5,726C 553.934,724.934 550.267,721.1 549.5,714.5C 551.167,714.5 552.833,714.5 554.5,714.5C 554.56,719.061 556.893,721.561 561.5,722C 571.833,722.667 582.167,722.667 592.5,722C 595.494,721.594 597.661,720.094 599,717.5C 600.482,678.228 600.982,638.894 600.5,599.5C 599.167,599.5 597.833,599.5 596.5,599.5C 595.167,599.5 593.833,599.5 592.5,599.5C 592.5,584.167 592.5,568.833 592.5,553.5 Z"/></g>
<g><path style="opacity:1" fill="#d59c00" d="M 596.5,599.5 C 597.833,599.5 599.167,599.5 600.5,599.5C 600.982,638.894 600.482,678.228 599,717.5C 597.661,720.094 595.494,721.594 592.5,722C 582.167,722.667 571.833,722.667 561.5,722C 556.893,721.561 554.56,719.061 554.5,714.5C 556.167,714.5 557.833,714.5 559.5,714.5C 559.953,715.458 560.619,716.292 561.5,717C 571.833,719 582.167,719 592.5,717C 593.333,716.167 594.167,715.333 595,714.5C 596.45,676.194 596.95,637.861 596.5,599.5 Z"/></g>
<g><path style="opacity:1" fill="#c79200" d="M 592.5,599.5 C 593.833,599.5 595.167,599.5 596.5,599.5C 596.95,637.861 596.45,676.194 595,714.5C 594.167,715.333 593.333,716.167 592.5,717C 582.167,719 571.833,719 561.5,717C 560.619,716.292 559.953,715.458 559.5,714.5C 570.5,714.5 581.5,714.5 592.5,714.5C 592.5,676.167 592.5,637.833 592.5,599.5 Z"/></g>
<g><path style="opacity:1" fill="#daa000" d="M 514.5,599.5 C 516.167,599.5 517.833,599.5 519.5,599.5C 519.833,599.5 520.167,599.5 520.5,599.5C 520.964,638.868 520.464,678.201 519,717.5C 517.833,720 516,721.833 513.5,723C 506.215,724.414 498.882,724.747 491.5,724C 492.056,723.617 492.389,723.117 492.5,722.5C 492.343,721.127 492.51,719.793 493,718.5C 495.724,719.776 498.724,720.442 502,720.5C 504.833,720.333 507.667,720.167 510.5,720C 512.329,719.727 513.829,718.893 515,717.5C 516.703,707.246 517.37,696.913 517,686.5C 515.719,686.619 514.552,686.119 513.5,685C 514.495,656.574 514.829,628.074 514.5,599.5 Z"/></g>
<g><path style="opacity:1" fill="#e5a900" d="M 255.5,599.5 C 255.833,599.5 256.167,599.5 256.5,599.5C 256.334,608.506 256.5,617.506 257,626.5C 258.891,649.017 266.391,669.35 279.5,687.5C 282.215,694.385 286.548,700.218 292.5,705C 298.137,707.82 303.47,711.153 308.5,715C 328.103,724.6 348.77,727.934 370.5,725C 403.943,721.54 427.11,704.373 440,673.5C 443.44,665.663 444.107,657.663 442,649.5C 440.22,648.361 438.386,647.361 436.5,646.5C 436.5,644.833 436.5,643.167 436.5,641.5C 424.678,640.505 412.678,640.172 400.5,640.5C 413.66,639.34 426.994,639.173 440.5,640C 448.364,641.534 452.031,646.368 451.5,654.5C 444.524,699.976 418.191,725.809 372.5,732C 319.783,738.908 283.283,718.074 263,669.5C 256.106,646.672 253.606,623.339 255.5,599.5 Z"/></g>
<g><path style="opacity:1" fill="#020100" d="M 548.5,550.5 C 563.167,550.5 577.833,550.5 592.5,550.5C 592.5,551.5 592.5,552.5 592.5,553.5C 592.5,568.833 592.5,584.167 592.5,599.5C 592.5,637.833 592.5,676.167 592.5,714.5C 581.5,714.5 570.5,714.5 559.5,714.5C 557.833,714.5 556.167,714.5 554.5,714.5C 552.833,714.5 551.167,714.5 549.5,714.5C 548.501,660.003 548.168,605.336 548.5,550.5 Z"/></g>
<g><path style="opacity:1" fill="#cd9700" d="M 924.5,565.5 C 924.509,567.308 924.009,568.975 923,570.5C 915.02,579.981 906.853,589.315 898.5,598.5C 902.107,599.489 905.774,599.823 909.5,599.5C 904.543,605.628 899.376,611.628 894,617.5C 889.112,622.362 888.446,627.696 892,633.5C 909.581,658.994 926.914,684.661 944,710.5C 945.457,713.366 945.79,716.366 945,719.5C 943.829,720.893 942.329,721.727 940.5,722C 927.833,722.667 915.167,722.667 902.5,722C 898.155,720.819 894.822,718.319 892.5,714.5C 909.17,714.667 925.837,714.5 942.5,714C 920.76,682.596 899.427,650.929 878.5,619C 893.685,600.986 909.018,583.153 924.5,565.5 Z"/></g>
<g><path style="opacity:1" fill="#dda300" d="M 909.5,599.5 C 910.833,599.5 912.167,599.5 913.5,599.5C 908.218,606.949 902.385,613.949 896,620.5C 893.792,623.624 893.292,626.957 894.5,630.5C 912.092,656.472 929.592,682.472 947,708.5C 948.424,711.344 949.257,714.344 949.5,717.5C 949.889,721.862 947.889,724.362 943.5,725C 929.5,725.667 915.5,725.667 901.5,725C 899.051,724.275 896.717,723.275 894.5,722C 883.001,705.324 871.668,688.491 860.5,671.5C 857.391,666.737 853.891,666.404 850,670.5C 848.398,672.708 847.064,675.041 846,677.5C 845.667,690.5 845.333,703.5 845,716.5C 844.167,721.333 841.333,724.167 836.5,725C 824.833,725.667 813.167,725.667 801.5,725C 795.824,723.822 792.824,720.322 792.5,714.5C 795.5,714.5 798.5,714.5 801.5,714.5C 801.953,715.458 802.619,716.292 803.5,717C 813.833,719 824.167,719 834.5,717C 835.333,716.167 836.167,715.333 837,714.5C 838.171,700.865 838.838,687.198 839,673.5C 839.45,671.481 840.283,669.648 841.5,668C 844.463,666.039 847.129,663.706 849.5,661C 851.407,659.878 853.407,659.045 855.5,658.5C 867.833,677.167 880.167,695.833 892.5,714.5C 894.822,718.319 898.155,720.819 902.5,722C 915.167,722.667 927.833,722.667 940.5,722C 942.329,721.727 943.829,720.893 945,719.5C 945.79,716.366 945.457,713.366 944,710.5C 926.914,684.661 909.581,658.994 892,633.5C 888.446,627.696 889.112,622.362 894,617.5C 899.376,611.628 904.543,605.628 909.5,599.5 Z"/></g>
<g><path style="opacity:1" fill="#d7a000" d="M 746.5,564.5 C 752.023,567.51 756.856,571.51 761,576.5C 764.505,584.844 768.505,592.844 773,600.5C 773.694,603.468 774.194,606.468 774.5,609.5C 774.823,614.394 772.823,617.894 768.5,620C 758.879,621.491 749.212,621.824 739.5,621C 733.264,620.592 729.264,617.426 727.5,611.5C 740.167,611.5 752.833,611.5 765.5,611.5C 765.505,593.19 759.172,577.523 746.5,564.5 Z"/></g>
<g><path style="opacity:0.022" fill="#fefffe" d="M 6.5,609.5 C 6.89657,608.475 7.56323,608.308 8.5,609C 20.4611,618.626 32.1278,628.626 43.5,639C 107,702.5 170.5,766 234,829.5C 239.805,837.606 245.972,845.439 252.5,853C 251.833,853.667 251.167,853.667 250.5,853C 240.021,844.582 229.688,835.915 219.5,827C 154.667,762.167 89.8333,697.333 25,632.5C 21.5184,629.023 18.8518,625.023 17,620.5C 13.2684,616.938 9.76837,613.271 6.5,609.5 Z"/></g>
<g><path style="opacity:1" fill="#c69200" d="M 707.5,585.5 C 694.728,584.197 684.395,588.53 676.5,598.5C 678.078,599.298 679.744,599.798 681.5,600C 680.213,601.41 679.046,602.91 678,604.5C 671.267,623.429 669.934,642.763 674,662.5C 675.11,668.044 677.277,673.044 680.5,677.5C 679.761,677.631 679.094,677.464 678.5,677C 672.186,671.207 668.352,664.041 667,655.5C 665.472,641.871 665.138,628.204 666,614.5C 666.587,610.072 667.587,605.739 669,601.5C 677.077,584.316 689.91,578.983 707.5,585.5 Z"/></g>
<g><path style="opacity:1" fill="#3d2c00" d="M 400.5,640.5 C 412.678,640.172 424.678,640.505 436.5,641.5C 421.5,641.5 406.5,641.5 391.5,641.5C 391.768,643.099 391.434,644.432 390.5,645.5C 390.5,643.833 390.5,642.167 390.5,640.5C 393.833,640.5 397.167,640.5 400.5,640.5 Z"/></g>
<g><path style="opacity:1" fill="#d09900" d="M 436.5,646.5 C 438.386,647.361 440.22,648.361 442,649.5C 444.107,657.663 443.44,665.663 440,673.5C 427.11,704.373 403.943,721.54 370.5,725C 348.77,727.934 328.103,724.6 308.5,715C 303.47,711.153 298.137,707.82 292.5,705C 286.548,700.218 282.215,694.385 279.5,687.5C 293.862,704.519 312.195,714.519 334.5,717.5C 359.674,722.832 383.674,719.332 406.5,707C 425.142,694.372 435.309,676.872 437,654.5C 436.283,653.956 435.783,653.289 435.5,652.5C 435.833,650.5 436.167,648.5 436.5,646.5 Z"/></g>
<g><path style="opacity:1" fill="#bd8b00" d="M 435.5,652.5 C 435.783,653.289 436.283,653.956 437,654.5C 435.309,676.872 425.142,694.372 406.5,707C 383.674,719.332 359.674,722.832 334.5,717.5C 343.506,717.666 352.506,717.5 361.5,717C 401.389,712.592 426.056,691.092 435.5,652.5 Z"/></g>
<g><path style="opacity:1" fill="#bc8a00" d="M 855.5,658.5 C 853.407,659.045 851.407,659.878 849.5,661C 847.129,663.706 844.463,666.039 841.5,668C 840.283,669.648 839.45,671.481 839,673.5C 838.838,687.198 838.171,700.865 837,714.5C 836.167,715.333 835.333,716.167 834.5,717C 824.167,719 813.833,719 803.5,717C 802.619,716.292 801.953,715.458 801.5,714.5C 812.167,714.5 822.833,714.5 833.5,714.5C 833.333,697.83 833.5,681.163 834,664.5C 839.015,659.318 844.181,654.318 849.5,649.5C 852.252,652.004 854.252,655.004 855.5,658.5 Z"/></g>
<g><path style="opacity:0.119" fill="#fefffe" d="M 1101.5,675.5 C 1114.36,676.888 1120.19,684.221 1119,697.5C 1116.06,704.643 1110.72,708.643 1103,709.5C 1087.95,705.676 1083.61,696.676 1090,682.5C 1093.23,678.979 1097.06,676.646 1101.5,675.5 Z M 1099.5,683.5 C 1101.86,683.337 1104.19,683.503 1106.5,684C 1102.3,687.867 1098.47,692.033 1095,696.5C 1094.6,695.128 1094.1,693.795 1093.5,692.5C 1094.74,688.935 1096.74,685.935 1099.5,683.5 Z M 1111.5,689.5 C 1112.8,698.361 1108.8,702.194 1099.5,701C 1104,697.664 1108,693.831 1111.5,689.5 Z"/></g>
<g><path style="opacity:1" fill="#242424" d="M 509.5,678.5 C 509.5,682.167 509.5,685.833 509.5,689.5C 506.036,692.462 502.703,695.629 499.5,699C 496.53,699.022 495.364,697.522 496,694.5C 499.5,691 503,687.5 506.5,684C 498.341,680.917 493.674,683.751 492.5,692.5C 494.801,702.814 500.468,705.148 509.5,699.5C 509.5,701.833 509.5,704.167 509.5,706.5C 507.165,707.665 504.665,708.332 502,708.5C 488.91,705.99 484.244,698.323 488,685.5C 493.199,677.045 500.365,674.711 509.5,678.5 Z"/></g>
<g><path style="opacity:1" fill="#040404" d="M 509.5,689.5 C 509.5,692.833 509.5,696.167 509.5,699.5C 500.468,705.148 494.801,702.814 492.5,692.5C 493.674,683.751 498.341,680.917 506.5,684C 503,687.5 499.5,691 496,694.5C 495.364,697.522 496.53,699.022 499.5,699C 502.703,695.629 506.036,692.462 509.5,689.5 Z"/></g>
<g><path style="opacity:0.118" fill="#fefefe" d="M 1076.5,700.5 C 1087.85,701.016 1094.18,706.849 1095.5,718C 1094.3,722.392 1092.3,726.392 1089.5,730C 1080.77,735.955 1072.6,735.122 1065,727.5C 1058.83,714.486 1062.66,705.486 1076.5,700.5 Z M 1074.5,708.5 C 1076.86,708.337 1079.19,708.503 1081.5,709C 1077.3,712.867 1073.47,717.033 1070,721.5C 1068.38,715.968 1069.88,711.634 1074.5,708.5 Z M 1086.5,714.5 C 1088.13,722.384 1084.79,726.218 1076.5,726C 1076.17,725.667 1075.83,725.333 1075.5,725C 1079.67,721.998 1083.33,718.498 1086.5,714.5 Z"/></g>
<g><path style="opacity:1" fill="#2e271a" d="M 466.5,481.5 C 466.333,556.167 466.5,630.834 467,705.5C 472.262,701.195 478.095,700.362 484.5,703C 486.846,704.013 488.513,705.679 489.5,708C 488.015,710.317 486.348,712.484 484.5,714.5C 481.833,714.5 479.167,714.5 476.5,714.5C 477.96,712.537 479.627,710.704 481.5,709C 475.072,705.935 470.738,707.768 468.5,714.5C 467.5,714.5 466.5,714.5 465.5,714.5C 465.5,676.167 465.5,637.833 465.5,599.5C 465.168,559.996 465.501,520.663 466.5,481.5 Z"/></g>
<g><path style="opacity:1" fill="#d9a000" d="M 765.5,660.5 C 772.921,660.925 776.588,664.925 776.5,672.5C 771.415,700.42 755.248,718.42 728,726.5C 726.715,726.05 725.548,725.383 724.5,724.5C 724.264,725.247 723.93,726.08 723.5,727C 712.544,728.517 701.544,728.85 690.5,728C 660.207,724.377 640.207,708.211 630.5,679.5C 636.735,691.07 645.402,700.403 656.5,707.5C 660.424,712.213 665.424,715.713 671.5,718C 699.414,728.279 725.414,724.945 749.5,708C 760.034,698.931 766.701,687.597 769.5,674C 769.328,670.589 767.662,668.422 764.5,667.5C 764.993,665.194 765.326,662.861 765.5,660.5 Z"/></g>
<g><path style="opacity:1" fill="#010101" d="M 476.5,714.5 C 476.167,714.5 475.833,714.5 475.5,714.5C 473.167,714.5 470.833,714.5 468.5,714.5C 470.738,707.768 475.072,705.935 481.5,709C 479.627,710.704 477.96,712.537 476.5,714.5 Z"/></g>
<g><path style="opacity:1" fill="#c79200" d="M 764.5,667.5 C 767.662,668.422 769.328,670.589 769.5,674C 766.701,687.597 760.034,698.931 749.5,708C 725.414,724.945 699.414,728.279 671.5,718C 665.424,715.713 660.424,712.213 656.5,707.5C 676.152,717.555 696.819,720.055 718.5,715C 743.193,708.142 758.526,692.308 764.5,667.5 Z"/></g>
<g><path style="opacity:0.114" fill="#fefffe" d="M 1052.5,719.5 C 1057.2,720.684 1058.37,723.351 1056,727.5C 1055.33,730.167 1055.33,732.833 1056,735.5C 1060,739.5 1064,743.5 1068,747.5C 1068.78,748.944 1068.61,750.277 1067.5,751.5C 1066.19,752.313 1065.02,753.313 1064,754.5C 1058.26,749.427 1053.26,743.76 1049,737.5C 1046.68,730.778 1047.85,724.778 1052.5,719.5 Z"/></g>
<g><path style="opacity:0.114" fill="#fefffe" d="M 1026.5,754.5 C 1026.5,753.833 1026.17,753.5 1025.5,753.5C 1025.5,752.833 1025.17,752.5 1024.5,752.5C 1024.5,751.833 1024.17,751.5 1023.5,751.5C 1023.5,750.833 1023.17,750.5 1022.5,750.5C 1027.3,745.202 1032.3,740.035 1037.5,735C 1040.28,734.583 1042.28,735.75 1043.5,738.5C 1041.79,740.874 1039.79,743.04 1037.5,745C 1043.9,749.397 1049.74,754.564 1055,760.5C 1055.77,764.382 1054.27,766.548 1050.5,767C 1044.23,761.405 1038.73,755.239 1034,748.5C 1031.89,751.118 1029.39,753.118 1026.5,754.5 Z"/></g>
<g><path style="opacity:0.119" fill="#fefffe" d="M 1022.5,750.5 C 1023.17,750.5 1023.5,750.833 1023.5,751.5C 1024.17,751.5 1024.5,751.833 1024.5,752.5C 1025.17,752.5 1025.5,752.833 1025.5,753.5C 1026.17,753.5 1026.5,753.833 1026.5,754.5C 1026.59,755.496 1026.25,756.329 1025.5,757C 1031.23,760.727 1036.4,765.227 1041,770.5C 1043.88,775.666 1044.21,780.999 1042,786.5C 1039.16,792.981 1036,792.981 1032.5,786.5C 1022.39,792.843 1013.89,791.176 1007,781.5C 1004.77,775.669 1005.1,770.002 1008,764.5C 1012.7,759.63 1017.54,754.963 1022.5,750.5 Z M 1022.5,760.5 C 1026.5,765.5 1030.5,770.5 1034.5,775.5C 1030.79,778.537 1026.79,781.204 1022.5,783.5C 1016.02,782.487 1012.85,778.487 1013,771.5C 1015.28,767.051 1018.45,763.384 1022.5,760.5 Z"/></g>
<g><path style="opacity:0.119" fill="#fefffe" d="M 406.5,764.5 C 409.833,764.5 413.167,764.5 416.5,764.5C 409.415,771.836 410.248,778.169 419,783.5C 421.039,783.634 423.206,783.134 425.5,782C 427.771,779.218 430.437,777.051 433.5,775.5C 430.902,771.562 427.902,767.895 424.5,764.5C 427.833,764.5 431.167,764.5 434.5,764.5C 441.596,770.363 443.763,777.697 441,786.5C 438.165,792.981 434.998,792.981 431.5,786.5C 421.389,792.843 412.889,791.176 406,781.5C 403.929,775.75 404.095,770.084 406.5,764.5 Z M 416.5,764.5 C 419.167,764.5 421.833,764.5 424.5,764.5C 427.902,767.895 430.902,771.562 433.5,775.5C 430.437,777.051 427.771,779.218 425.5,782C 423.206,783.134 421.039,783.634 419,783.5C 410.248,778.169 409.415,771.836 416.5,764.5 Z"/></g>
<g><path style="opacity:0.072" fill="#fefffe" d="M 447.5,764.5 C 449.5,764.5 451.5,764.5 453.5,764.5C 451.5,768.5 449.5,768.5 447.5,764.5 Z"/></g>
<g><path style="opacity:0.021" fill="#fefffe" d="M 758.5,764.5 C 762.5,764.5 766.5,764.5 770.5,764.5C 791.798,786.299 813.298,807.965 835,829.5C 840.805,837.606 846.972,845.439 853.5,853C 853.167,853.167 852.833,853.333 852.5,853.5C 841.689,844.916 831.022,836.082 820.5,827C 800.3,805.633 779.633,784.8 758.5,764.5 Z"/></g>
<g><path style="opacity:0.121" fill="#fefefe" d="M 391.5,782.5 C 395.967,782.133 400.3,782.633 404.5,784C 409.349,788.681 414.015,793.515 418.5,798.5C 417.284,801.25 415.284,802.417 412.5,802C 408.833,798.333 405.167,794.667 401.5,791C 393.554,787.919 388.554,790.586 386.5,799C 387.717,800.648 388.55,802.481 389,804.5C 393.214,808.378 397.048,812.545 400.5,817C 399.708,818.96 398.375,820.46 396.5,821.5C 389.53,816.037 383.864,809.537 379.5,802C 379.007,792.832 383.007,786.332 391.5,782.5 Z"/></g>
<g><path style="opacity:0.121" fill="#fefefe" d="M 992.5,782.5 C 996.967,782.133 1001.3,782.633 1005.5,784C 1010.35,788.681 1015.02,793.515 1019.5,798.5C 1018.28,801.25 1016.28,802.417 1013.5,802C 1009.83,798.333 1006.17,794.667 1002.5,791C 994.554,787.919 989.554,790.586 987.5,799C 988.717,800.648 989.55,802.481 990,804.5C 994.214,808.378 998.048,812.545 1001.5,817C 1000.71,818.96 999.375,820.46 997.5,821.5C 990.53,816.037 984.864,809.537 980.5,802C 980.007,792.832 984.007,786.332 992.5,782.5 Z"/></g>
<g><path style="opacity:0.118" fill="#fefffe" d="M 368.5,806.5 C 383.726,806.972 389.893,814.639 387,829.5C 384.42,834.084 381.087,838.084 377,841.5C 376.667,845.167 376.333,848.833 376,852.5C 366.833,843.333 357.667,834.167 348.5,825C 351.725,819.722 356.058,814.722 361.5,810C 363.713,808.384 366.047,807.217 368.5,806.5 Z M 371.5,813.5 C 379.139,815.094 381.972,819.761 380,827.5C 377,830.5 374,833.5 371,836.5C 366.801,831.966 362.301,827.799 357.5,824C 361.272,819.029 365.939,815.529 371.5,813.5 Z"/></g>
<g><path style="opacity:0.118" fill="#fefffe" d="M 969.5,806.5 C 984.726,806.972 990.893,814.639 988,829.5C 985.42,834.084 982.087,838.084 978,841.5C 977.667,845.167 977.333,848.833 977,852.5C 967.833,843.333 958.667,834.167 949.5,825C 952.725,819.722 957.058,814.722 962.5,810C 964.713,808.384 967.047,807.217 969.5,806.5 Z M 972.5,813.5 C 980.139,815.094 982.972,819.761 981,827.5C 978,830.5 975,833.5 972,836.5C 967.801,831.966 963.301,827.799 958.5,824C 962.272,819.029 966.939,815.529 972.5,813.5 Z"/></g>
<g><path style="opacity:0.137" fill="#fefefe" d="M 299.5,864.5 C 321.606,866.107 333.606,877.94 335.5,900C 334.103,918.676 324.77,930.676 307.5,936C 288.682,939.843 274.849,933.009 266,915.5C 260.204,894.543 266.704,878.71 285.5,868C 290.224,866.506 294.891,865.339 299.5,864.5 Z M 298.5,912.5 C 302.082,906.283 303.249,899.617 302,892.5C 301.361,889.888 300.194,887.554 298.5,885.5C 290.411,892.001 287.078,900.334 288.5,910.5C 278.512,905.854 275.012,898.188 278,887.5C 282.779,876.86 290.946,872.693 302.5,875C 310.343,878.172 314.676,884.005 315.5,892.5C 314.139,902.859 308.472,909.525 298.5,912.5 Z"/></g>
<g><path style="opacity:0.137" fill="#fefefe" d="M 900.5,864.5 C 922.606,866.107 934.606,877.94 936.5,900C 935.103,918.676 925.77,930.676 908.5,936C 889.682,939.843 875.849,933.009 867,915.5C 861.204,894.543 867.704,878.71 886.5,868C 891.224,866.506 895.891,865.339 900.5,864.5 Z M 899.5,912.5 C 903.082,906.283 904.249,899.617 903,892.5C 902.361,889.888 901.194,887.554 899.5,885.5C 891.411,892.001 888.078,900.334 889.5,910.5C 879.512,905.854 876.012,898.188 879,887.5C 883.779,876.86 891.946,872.693 903.5,875C 911.343,878.172 915.676,884.005 916.5,892.5C 915.139,902.859 909.472,909.525 899.5,912.5 Z"/></g>
<g><path style="opacity:0.004" fill="#fefffe" d="M 333.5,934.5 C 332.833,933.167 332.833,933.167 333.5,934.5 Z"/></g>
<g><path style="opacity:0.004" fill="#fefffe" d="M 934.5,934.5 C 933.833,933.167 933.833,933.167 934.5,934.5 Z"/></g>
<g><path style="opacity:0.004" fill="#fefffe" d="M 333.5,934.5 C 334.167,934.5 334.5,934.833 334.5,935.5C 334.167,935.167 333.833,934.833 333.5,934.5 Z"/></g>
<g><path style="opacity:0.004" fill="#fefffe" d="M 934.5,934.5 C 935.167,934.5 935.5,934.833 935.5,935.5C 935.167,935.167 934.833,934.833 934.5,934.5 Z"/></g>
<g><path style="opacity:0.022" fill="#fefffe" d="M 334.5,935.5 C 346.519,943.672 357.852,952.839 368.5,963C 432.333,1026.83 496.167,1090.67 560,1154.5C 566.788,1164.41 574.288,1173.75 582.5,1182.5C 577.092,1178.6 572.092,1174.1 567.5,1169C 563.833,1166.67 560.167,1164.33 556.5,1162C 488.307,1094.81 420.473,1027.31 353,959.5C 347.551,950.929 341.384,942.929 334.5,935.5 Z"/></g>
<g><path style="opacity:0.022" fill="#fefffe" d="M 935.5,935.5 C 947.519,943.672 958.852,952.839 969.5,963C 1033.33,1026.83 1097.17,1090.67 1161,1154.5C 1167.79,1164.41 1175.29,1173.75 1183.5,1182.5C 1178.09,1178.6 1173.09,1174.1 1168.5,1169C 1164.83,1166.67 1161.17,1164.33 1157.5,1162C 1089.31,1094.81 1021.47,1027.31 954,959.5C 948.551,950.929 942.384,942.929 935.5,935.5 Z"/></g>
<g><path style="opacity:0.12" fill="#fefffe" d="M 219.5,955.5 C 233.364,955.196 239.864,961.862 239,975.5C 235.145,987.132 227.312,990.965 215.5,987C 203.892,977.776 203.558,968.109 214.5,958C 216.315,957.243 217.981,956.41 219.5,955.5 Z M 222.5,962.5 C 223.922,962.709 225.255,963.209 226.5,964C 222.298,967.867 218.465,972.033 215,976.5C 213.034,969.432 215.534,964.765 222.5,962.5 Z M 231.5,968.5 C 233.097,978.729 228.764,982.562 218.5,980C 223.598,977.071 227.931,973.238 231.5,968.5 Z"/></g>
<g><path style="opacity:0.12" fill="#fefffe" d="M 820.5,955.5 C 834.364,955.196 840.864,961.862 840,975.5C 836.145,987.132 828.312,990.965 816.5,987C 804.892,977.776 804.558,968.109 815.5,958C 817.315,957.243 818.981,956.41 820.5,955.5 Z M 823.5,962.5 C 824.922,962.709 826.255,963.209 827.5,964C 823.298,967.867 819.465,972.033 816,976.5C 814.034,969.432 816.534,964.765 823.5,962.5 Z M 832.5,968.5 C 834.097,978.729 829.764,982.562 819.5,980C 824.598,977.071 828.931,973.238 832.5,968.5 Z"/></g>
<g><path style="opacity:0.12" fill="#fefefe" d="M 193.5,980.5 C 208.792,979.958 215.625,987.292 214,1002.5C 209.156,1011.89 201.656,1015.06 191.5,1012C 182.826,1007.13 179.992,999.965 183,990.5C 185.738,986.26 189.238,982.926 193.5,980.5 Z M 195.5,987.5 C 197.924,987.635 199.924,987.968 201.5,988.5C 197.849,992.652 194.016,996.652 190,1000.5C 188.571,994.7 190.404,990.367 195.5,987.5 Z M 206.5,993.5 C 208.296,1003.2 204.296,1007.04 194.5,1005C 199.002,1001.66 203.002,997.831 206.5,993.5 Z"/></g>
<g><path style="opacity:0.12" fill="#fefefe" d="M 794.5,980.5 C 809.792,979.958 816.625,987.292 815,1002.5C 810.156,1011.89 802.656,1015.06 792.5,1012C 783.826,1007.13 780.992,999.965 784,990.5C 786.738,986.26 790.238,982.926 794.5,980.5 Z M 796.5,987.5 C 798.924,987.635 800.924,987.968 802.5,988.5C 798.849,992.652 795.016,996.652 791,1000.5C 789.571,994.7 791.404,990.367 796.5,987.5 Z M 807.5,993.5 C 809.296,1003.2 805.296,1007.04 795.5,1005C 800.002,1001.66 804.002,997.831 807.5,993.5 Z"/></g>
<g><path style="opacity:0.116" fill="#fefffe" d="M 172.5,999.5 C 178.436,1001.84 179.103,1005.34 174.5,1010C 174.57,1011.62 175.07,1013.46 176,1015.5C 180,1019.5 184,1023.5 188,1027.5C 188.167,1031.33 186.333,1033.17 182.5,1033C 177.254,1028.42 172.754,1023.26 169,1017.5C 166.418,1010.73 167.585,1004.73 172.5,999.5 Z"/></g>
<g><path style="opacity:0.116" fill="#fefffe" d="M 773.5,999.5 C 779.436,1001.84 780.103,1005.34 775.5,1010C 775.57,1011.62 776.07,1013.46 777,1015.5C 781,1019.5 785,1023.5 789,1027.5C 789.167,1031.33 787.333,1033.17 783.5,1033C 778.254,1028.42 773.754,1023.26 770,1017.5C 767.418,1010.73 768.585,1004.73 773.5,999.5 Z"/></g>
<g><path style="opacity:0.118" fill="#fefffe" d="M 158.5,1013.5 C 160.479,1014.81 162.145,1016.48 163.5,1018.5C 161.833,1020.5 160.167,1022.5 158.5,1024.5C 164.152,1029.65 169.652,1034.99 175,1040.5C 175.167,1044.33 173.333,1046.17 169.5,1046C 164,1040.5 158.5,1035 153,1029.5C 150.984,1031.68 148.817,1033.68 146.5,1035.5C 151.851,1041.02 157.018,1046.68 162,1052.5C 164.702,1059.88 163.202,1066.21 157.5,1071.5C 155.041,1070.21 153.541,1068.21 153,1065.5C 151.421,1067.04 149.587,1068.21 147.5,1069C 131.55,1071.38 124.383,1064.55 126,1048.5C 126.667,1047.17 127.333,1045.83 128,1044.5C 138.369,1034.3 148.535,1023.97 158.5,1013.5 Z M 154.5,1055.5 C 151.775,1056.71 149.441,1058.55 147.5,1061C 139.5,1064.33 134.5,1061.83 132.5,1053.5C 134.235,1048.24 137.402,1043.91 142,1040.5C 146.401,1045.39 150.568,1050.39 154.5,1055.5 Z"/></g>
<g><path style="opacity:0.118" fill="#fefffe" d="M 759.5,1013.5 C 761.479,1014.81 763.145,1016.48 764.5,1018.5C 762.833,1020.5 761.167,1022.5 759.5,1024.5C 765.152,1029.65 770.652,1034.99 776,1040.5C 776.167,1044.33 774.333,1046.17 770.5,1046C 765,1040.5 759.5,1035 754,1029.5C 751.984,1031.68 749.817,1033.68 747.5,1035.5C 752.851,1041.02 758.018,1046.68 763,1052.5C 765.702,1059.88 764.202,1066.21 758.5,1071.5C 756.041,1070.21 754.541,1068.21 754,1065.5C 752.421,1067.04 750.587,1068.21 748.5,1069C 732.55,1071.38 725.383,1064.55 727,1048.5C 727.667,1047.17 728.333,1045.83 729,1044.5C 739.369,1034.3 749.535,1023.97 759.5,1013.5 Z M 755.5,1055.5 C 752.775,1056.71 750.441,1058.55 748.5,1061C 740.5,1064.33 735.5,1061.83 733.5,1053.5C 735.235,1048.24 738.402,1043.91 743,1040.5C 747.401,1045.39 751.568,1050.39 755.5,1055.5 Z"/></g>
<g><path style="opacity:0.118" fill="#fefefe" d="M 114.5,1061.5 C 116.877,1061.78 119.044,1061.78 121,1061.5C 128.225,1065.55 134.392,1070.89 139.5,1077.5C 138.185,1079.32 136.685,1080.98 135,1082.5C 130.199,1078.7 125.699,1074.53 121.5,1070C 114.083,1067.89 109.416,1070.72 107.5,1078.5C 108.098,1079.79 108.598,1081.13 109,1082.5C 113.547,1086.71 117.714,1091.21 121.5,1096C 120.667,1098.17 119.167,1099.67 117,1100.5C 112.378,1096.88 108.045,1092.88 104,1088.5C 97.5981,1075.53 101.098,1066.53 114.5,1061.5 Z"/></g>
<g><path style="opacity:0.118" fill="#fefefe" d="M 715.5,1061.5 C 717.877,1061.78 720.044,1061.78 722,1061.5C 729.225,1065.55 735.392,1070.89 740.5,1077.5C 739.185,1079.32 737.685,1080.98 736,1082.5C 731.199,1078.7 726.699,1074.53 722.5,1070C 715.083,1067.89 710.416,1070.72 708.5,1078.5C 709.098,1079.79 709.598,1081.13 710,1082.5C 714.547,1086.71 718.714,1091.21 722.5,1096C 721.667,1098.17 720.167,1099.67 718,1100.5C 713.378,1096.88 709.045,1092.88 705,1088.5C 698.598,1075.53 702.098,1066.53 715.5,1061.5 Z"/></g>
<g><path style="opacity:0.119" fill="#fefffe" d="M 87.5,1086.5 C 98.8091,1085 105.976,1089.66 109,1100.5C 109.458,1104.34 108.791,1108.01 107,1111.5C 103.5,1115 100,1118.5 96.5,1122C 97.7874,1125.12 97.7874,1128.29 96.5,1131.5C 87.1667,1122.83 78.1667,1113.83 69.5,1104.5C 74.5731,1097.43 80.5731,1091.43 87.5,1086.5 Z M 89.5,1093.5 C 99.8701,1093.7 103.37,1098.7 100,1108.5C 97.3333,1111.17 94.6667,1113.83 92,1116.5C 87.6513,1112.32 83.4846,1107.99 79.5,1103.5C 82.5481,1099.79 85.8815,1096.45 89.5,1093.5 Z"/></g>
<g><path style="opacity:0.119" fill="#fefffe" d="M 688.5,1086.5 C 699.809,1085 706.976,1089.66 710,1100.5C 710.458,1104.34 709.791,1108.01 708,1111.5C 704.5,1115 701,1118.5 697.5,1122C 698.787,1125.12 698.787,1128.29 697.5,1131.5C 688.167,1122.83 679.167,1113.83 670.5,1104.5C 675.573,1097.43 681.573,1091.43 688.5,1086.5 Z M 690.5,1093.5 C 700.87,1093.7 704.37,1098.7 701,1108.5C 698.333,1111.17 695.667,1113.83 693,1116.5C 688.651,1112.32 684.485,1107.99 680.5,1103.5C 683.548,1099.79 686.881,1096.45 690.5,1093.5 Z"/></g>
<g><path style="opacity:0.004" fill="#fefffe" d="M 582.5,1182.5 C 583.167,1182.5 583.5,1182.83 583.5,1183.5C 583.167,1183.17 582.833,1182.83 582.5,1182.5 Z"/></g>
<g><path style="opacity:0.004" fill="#fefffe" d="M 1183.5,1182.5 C 1184.17,1182.5 1184.5,1182.83 1184.5,1183.5C 1184.17,1183.17 1183.83,1182.83 1183.5,1182.5 Z"/></g>
<g><path style="opacity:0.004" fill="#fefffe" d="M 583.5,1183.5 C 584.167,1183.5 584.5,1183.83 584.5,1184.5C 584.167,1184.17 583.833,1183.83 583.5,1183.5 Z"/></g>
<g><path style="opacity:0.004" fill="#fefffe" d="M 1184.5,1183.5 C 1185.17,1183.5 1185.5,1183.83 1185.5,1184.5C 1185.17,1184.17 1184.83,1183.83 1184.5,1183.5 Z"/></g>
<g><path style="opacity:0.004" fill="#fefffe" d="M 584.5,1184.5 C 585.833,1185.17 585.833,1185.17 584.5,1184.5 Z"/></g>
<g><path style="opacity:0.004" fill="#fefffe" d="M 1185.5,1184.5 C 1186.83,1185.17 1186.83,1185.17 1185.5,1184.5 Z"/></g>
</svg>
