<?xml version="1.0" encoding="UTF-8"?>
<svg version="1.1" viewBox="0 0 2048 653" width="1280" height="1280" xmlns="http://www.w3.org/2000/svg">
<path transform="translate(0)" d="m0 0h2048v653h-2048z" fill="#FEFEFE"/>
<path transform="translate(193,474)" d="m0 0h30l13 3 9 5 7 8 3 7 1 6v10l-3 11-5 9-8 8-10 6-10 3-9 1h-39l-2-1 1-4 9-6 5-13 9-36 4-9-12 2-2 2v13l-12 4-4-1-2-3v-7l4-7 10-7z" fill="#040404"/>
<path transform="translate(728,492)" d="m0 0h7l-1 8-5 18-3 17v3l4-1 7-8 7-14 4-14 7-6 5-3h9l1 4-7 24-4 18v4l5-5 1-6v-2h-2l1-4 8-3 4 1 2 3 1 7-2 6-4 5-10 5-7 2-3 9-4 7-4 5-8 5-11 3h-14l-7-3-3-4 1-6 4-5 15-7 15-5 2-5v-7l-4 6-10 6-4 1h-9l-5-5-1-3 1-13 3-12v-4l-14 15-4-2-3-2v-3l8-7 9-9 12-9z" fill="#040404"/>
<path transform="translate(1152,320)" d="m0 0 5 1-1 8-2 8 5-5 5-4 9-4 11 1 5 4 2 5-1 11-5 13-7 9-9 8-12 6-14 3-4 10-4 6-7 6-10 3-9-1-4-4-1-6 5-10 18-18h2l4-21v-4l-9 10-5 5-6-1-2-4 7-8 12-13 10-8z" fill="#040404"/>
<path transform="translate(359,489)" d="m0 0h9l-1 6-3 10 5-5 6-5 8-3h9l6 3 3 5v11l-4 12-6 9-10 10-14 7-7 2h-7l-2 9-8 11-10 5h-13l-5-5 1-9 6-9 18-18 4-20-1-1-14 14-5-1-3-2 2-4 14-15 7-7h2v-2z" fill="#040404"/>
<path transform="translate(257,306)" d="m0 0h24v8l-6 23-2 5 7-1 6-9 8-16 5-6 10-4h12l7 4 5 5-1 2-11 4-4-2-4-4-3 1-12 23-3 4h-2l1 7 9 19 5 1 7-5 5 1 1 4-7 8-7 4-4 1h-11l-6-3-6-8-7-19-1 1-2 10-4 8-7 7-11 4h-12l-9-4-4-5 1-5 9-4 4 1 5 8h3l5-17 6-27 4-11 3-5-11 2-3 2-1 6 1 7-11 4-6-1-2-4 1-8 8-9 12-6z" fill="#040404"/>
<path transform="translate(1486,306)" d="m0 0h16l1 4-11 45-2 16 10-5 5-1 1 4-7 9-7 4-4 1h-11l-5-3-3-4-1-8 3-14-17 1-8 16-8 8-11 4h-14l-7-3-5-5-2-4 1-9 4-6 5-4 6-2h11l8 4v3l-7 4-10-2-1 2v7l3 5 7 1 5-5 5-8 10-23 6-11 8-10 11-7 9-3z" fill="#040404"/>
<path transform="translate(1556,299)" d="m0 0h13l5 5 1 3-2 8-7 10 5-1h7l6 3 3 5v7l-3 7-8 8-4 3h-2v18l6-3 14-12 4 1 1 5-10 11-10 7-8 3h-8l-5-3-3-4-1-4v-14l4-5 10-6 4-4v-10l-4 1-7 6-8 14-7 19-5 3-8 3h-8l4-17 2-10-11 11-6 1-1-4 7-8 13-14 3-6 4-15 7-14 8-6z" fill="#040404"/>
<path transform="translate(854,320)" d="m0 0 5 2-2 9-3 8 1-1 8-10 8-6 2-1h11l5 4 1 2v10l-8 35 11-7 5-3 5 1-1 5-9 9-12 6h-11l-5-3-2-5v-8l7-28 1-7-6 4-7 10-5 11-6 19-5 4-9 3h-7l4-16 4-17v-4l-15 15-4-2-4-4 7-6 7-8 5-6 13-10z" fill="#040404"/>
<path transform="translate(447,321)" d="m0 0h8l-1 8-3 10 7-9 8-7 4-2h11l5 4 1 9-3 15-4 16-1 6 6-3 9-6h5l1 5-9 9-11 6-3 1h-10l-5-3-2-3v-11l6-26 1-8-8 7-7 12-5 13-4 13-10 5-3 1h-7l1-7 5-19 3-12-14 14-5 1-5-3 2-4 11-11 7-8 10-8z" fill="#040404"/>
<path transform="translate(1832,325)" d="m0 0h7l-2 9-6 18-4 19 7-4 8-5 5 1 1 4-9 9-11 6-4 1h-9l-5-4v-9l-5 5-9 6-6 2h-10l-5-3-3-6v-8l4-11 7-11 11-9 11-5 7-2 17-2z" fill="#040404"/>
<path transform="translate(678,492)" d="m0 0h4l-2 9-6 18-4 20 14-9 7 1-1 5-8 7-10 6-5 2h-9l-4-2-3-11-7 8-12 5h-9l-5-3-3-5v-11l4-10 7-10 9-8 10-5 10-3 17-2z" fill="#040404"/>
<path transform="translate(1255,325)" d="m0 0h8l-10 31-3 15 6-3 10-6 5 1-1 5-8 8-14 7h-10l-5-5v-8l-5 5-9 6-6 2h-10l-5-3-3-6v-7l5-14 7-9 7-7 14-7 7-2 17-2z" fill="#040404"/>
<path transform="translate(845,492)" d="m0 0 3 1-3 11-6 19-3 16 7-4 8-5h5l1 4-10 10-8 5-6 2h-8l-5-2-2-5v-6l-6 7-8 4-6 2h-9l-6-4-2-3v-12l4-9 6-10 10-9 10-5 11-3 13-1z" fill="#040404"/>
<path transform="translate(1633,324)" d="m0 0h6l-1 9-7 27-1 11 4-2 9-12 6-14 5-13 9-5 10-1 1 3-7 22-3 13v9l10-7 4-2 6 1-1 5-10 9-10 5-3 1h-10l-5-5v-8l-5 5-5 4-10 4h-9l-5-4-1-2v-9l4-18v-3l-9 9-4 5-4-1-4-5 12-11 8-8 10-7z" fill="#040404"/>
<path transform="translate(371,325)" d="m0 0h8l1 4 6-2 4 3 1 4v8l7-4 8-6 4 2 1 3-6 8-8 7-7 2-3 9-7 9-9 7-7 3-5 1h-12l-8-4-4-7v-13l8-16 10-10 11-6z" fill="#040404"/>
<path transform="translate(1013,306)" d="m0 0h15l9 3 4 4 1 2v8l-4 6-8 5-6 2h-8l-10-4 1-4 7-3 11 1v-8l-4-3h-7l-8 5-6 8-5 11-2 8v14l3 7 4 3 10-1 16-8 7-1 1 6-4 5-10 7-12 4h-17l-11-4-7-8-2-6v-16l3-12 6-11 4-5 11-8 8-4z" fill="#040404"/>
<path transform="translate(662,324)" d="m0 0h8l11 3 1 5-8 11-2 4 8 7 3 4 1 9-3 6-5 5-8 4-4 1h-14l-13-3-2-1-1-6-7 6-6-1 1-4 12-10 11-9 4-3-1-4-3-5v-7l4-7 8-4z" fill="#040404"/>
<path transform="translate(541,324)" d="m0 0h8l10 3 2 4-6 9-6 7 5 2 7 8 1 3v9l-6 8-4 3-10 3h-14l-12-3-2-1-1-6-8 6-5-1 1-4 8-7 14-11 5-4-2-5-2-3v-9l4-6 8-4z" fill="#040404"/>
<path transform="translate(505,488)" d="m0 0h5l1 5-4 12v1l8-11 8-6h10l4 5 5-1 6-4 4 1 1 3-7 10-8 7-2 1h-7l-7-6-5 1-2 4-6 9-5 11-5 14-3 3-11 4h-7l3-11 6-25-1-1-14 14-5-1-3-3 2-4 22-22 14-9z" fill="#040404"/>
<path transform="translate(260,138)" d="m0 0 11 1 6 3 8 9 2 6v14l-5 10-7 6-10 3h-8l-9-4-6-5-5-10v-12l4-10 4-5 6-4z" fill="#040404"/>
<path transform="translate(1720,321)" d="m0 0h9l-2 9-3 9 1-1 7-10 7-6 2-1h10l3 5 6-1 4-3h6l1 3-6 8-6 7-6 3h-7l-5-4-1-2-5 2-6 8-8 16-4 12-4 4-10 4h-7l2-10 6-24v-4l-11 12-4 4-4-2-4-4 7-6 7-8 13-13z" fill="#040404"/>
<path transform="translate(390,139)" d="m0 0h17l6 3 7 8 3 7v14l-5 10-6 5-6 3-5 1h-8l-8-3-7-6-4-7-1-4v-10l3-9 6-8z" fill="#040404"/>
<path transform="translate(170,138)" d="m0 0h15l3 3 6 16 4 16 2-1 9-27 3-7h15l1 1v50l-2 1h-8l-1-1-1-33-12 33-1 1h-8l-3-5-7-19-4-11v33l-7 2-5-1v-28z" fill="#040404"/>
<path transform="translate(795,324)" d="m0 0 10 1 5 4 1 2v8l-5 8-10 6-10 4-11 2v7l1 5 8-1 15-9 6-4h2l2 4-1 4-11 10-10 6-8 2h-12l-8-4-4-7v-12l4-10 6-9 9-9 12-6z" fill="#040404"/>
<path transform="translate(443,492)" d="m0 0h11l6 3 3 8-2 7-4 5-12 7-13 4-7 1 2 9 3 3 9-3 17-11h2l2 3-1 5-8 8-11 7-10 3h-10l-8-3-4-4-2-7v-7l4-12 8-11 9-8 12-6z" fill="#040404"/>
<path transform="translate(1084,324)" d="m0 0h7l7 2 4 5v8l-5 8-10 6-10 4-10 2-1 1 1 9 2 2 6-1 12-7 8-5 4 1 1 4-6 7-10 8-10 4-4 1h-12l-8-4-4-8v-10l4-11 6-9 8-8 10-6z" fill="#040404"/>
<path transform="translate(1890,309)" d="m0 0 5 1-2 10-3 7 22-2 1 3-4 5-3 2-7 1h-13l-4 16-4 19 6-3 10-6 5 1-1 5-9 9-10 5-3 1h-10l-5-3-2-6 1-12 2-9-7 7-5-1-2-4 9-9h2l2-4 5-4 1-2-12-1 2-5 3-2 9-1 4-10 8-6z" fill="#040404"/>
<path transform="translate(1313,309)" d="m0 0 5 1-2 10-3 7 23-2-1 5-6 5-6 1h-14l-4 17-4 18 8-4 7-4 5-1 1 5-10 10-10 5-3 1h-10l-4-2-3-7 2-16v-4l-4 5-6 1v-2l-3-1 2-4 10-9 4-5 3-3-11-1v-3l4-4 11-1 1-8 4-5 7-4z" fill="#040404"/>
<path transform="translate(723,310)" d="m0 0h12l-3 12-2 5 22-2 1 3-4 5-3 2-5 1h-15l-3 12-4 18v5l11-7 4-2 5 1-1 5-12 11-10 4h-10l-5-3-2-5v-8l3-15-4 7-6 1-4-3 2-4 10-9 7-8-11-1v-3l5-4 10-1v-6l4-6z" fill="#040404"/>
<path transform="translate(712,138)" d="m0 0h10l3 1 16 25 4 6 1-27 2-5h10v51l-1 1h-10l-4-4-10-15-8-13-2-1v32l-2 1h-9l-1-1v-50z" fill="#040404"/>
<path transform="translate(821,138)" d="m0 0h10l5 5 15 23 2 5h2v-32l1-1 11 1v50l-1 1h-9l-5-3-16-25-3-4v-2h-2l1 4-1 29h-11l-1-1v-43z" fill="#040404"/>
<path transform="translate(297,492)" d="m0 0h9l1 2-8 28-2 10v7l14-9 5 1v4l-8 8-10 6-5 2h-9l-6-3-2-4v-7l5-21v-3l-11 12-3 3-5-1-4-4 12-12 1-2h2l2-4 10-9z" fill="#040404"/>
<path transform="translate(604,324)" d="m0 0h8l-1 7-7 27-3 13 5-2 11-7h4l1 5-9 9-8 5-6 2h-11l-5-4-1-2v-9l5-22-14 14-3 1-6-5 6-7 13-14 10-8z" fill="#040404"/>
<path transform="translate(595,492)" d="m0 0h10l5 2 1 3-2 10-4 4h-6l-4-9v-2l-6 2-5 5-5 8-3 7-1 11 3 6 9-3 15-10 4 1 1 5-5 5-9 8-8 4-8 2h-10l-8-4-3-6v-15l4-10 7-9 8-7 14-7z" fill="#040404"/>
<path transform="translate(216,482)" d="m0 0 6 1 8 6 4 7 2 5v20l-4 11-6 7-6 3-5 1h-19l2-4 6-10 5-17 6-28z" fill="#FEFEFE"/>
<path transform="translate(452,138)" d="m0 0h16l12 1 6 4 3 5v13l-6 7-7 3-12 1v17l-3 1h-9l-1-1v-50z" fill="#040404"/>
<path transform="translate(589,138)" d="m0 0h12l6 12 13 37-1 3-12-1-4-12v-2l-16 1-4 13-11 1-2-2 12-34 6-15z" fill="#040404"/>
<path transform="translate(783,138)" d="m0 0h12l6 14 13 36-1 2h-10l-3-3-4-11-16-1-3 13-1 1-11 1-1-3 13-37z" fill="#040404"/>
<path transform="translate(673,138)" d="m0 0h12l5 10 14 39v3h-10l-4-4-3-11-16 1-4 13h-13l14-40z" fill="#040404"/>
<path transform="translate(498,138)" d="m0 0h28l1 5-1 3-17 1-1 13h17l1 1v7l-17 1-1 13h19v7l-19 1h-11l-1-1v-50z" fill="#040404"/>
<path transform="translate(616,138)" d="m0 0h11l4 5 6 15 3-4 8-16h11l-5 13-8 16-2 5-1 14-1 3-3 1h-7l-1-1-1-17-11-25-3-5z" fill="#040404"/>
<path transform="translate(332,138)" d="m0 0h22l20 1-1 6-2 1h-12v43l-1 1h-10l-2-1v-42l-13-1-2-7z" fill="#040404"/>
<path transform="translate(303,138)" d="m0 0h25l1 5-1 3-13 1-1 42-1 1h-10l-1-1v-43h-10l-5-1v-6z" fill="#040404"/>
<path transform="translate(536,138)" d="m0 0h11l1 1v43h18l1 1v6l-16 1h-15l-1-1v-50z" fill="#040404"/>
<path transform="translate(258,146)" d="m0 0h9l5 4 3 8v12l-3 8-3 3-3 1h-8l-6-5-3-7v-12l4-8z" fill="#FEFEFE"/>
<path transform="translate(395,146)" d="m0 0h8l5 4 3 8v13l-4 8-5 3h-8l-5-4-3-5-1-4v-11l4-8z" fill="#FEFEFE"/>
<path transform="translate(371,333)" d="m0 0 2 1-3 6 2 9 3 5-1 7-6 8-6 3-5-1-3-5v-10l4-10 9-10z" fill="#FEFEFE"/>
<path transform="translate(377,504)" d="m0 0 5 1v9l-3 10-5 10-6 7-3 2-6-1-1-1 1-9 5-12 8-11z" fill="#FEFEFE"/>
<path transform="translate(1168,336)" d="m0 0h3v13l-5 13-6 8-6 5-6-1-1-5 4-12 7-12 4-5z" fill="#FEFEFE"/>
<path transform="translate(909,368)" d="m0 0h17l-2 10-6 19-1 1h-12l-1-3z" fill="#040404"/>
<path transform="translate(1341,368)" d="m0 0h16l1 2-7 25-3 3h-11l-1-5z" fill="#040404"/>
<path transform="translate(1918,368)" d="m0 0h16l-1 8-6 21-2 1h-12l1-11 3-17z" fill="#040404"/>
<path transform="translate(821,503)" d="m0 0h4l-1 8-7 16-12 12-3 1-2-3 1-11 7-14 7-7z" fill="#FEFEFE"/>
<path transform="translate(1809,336)" d="m0 0h8l-3 11-6 12-9 10-6 3-1-1v-12l4-10 7-9z" fill="#FEFEFE"/>
<path transform="translate(651,504)" d="m0 0h8l-1 7-5 12-7 9-7 7h-4l-1-2v-8l4-10 6-9z" fill="#FEFEFE"/>
<path transform="translate(1232,336)" d="m0 0h8l-1 5-4 11-7 11-9 8h-4v-11l4-10 4-6 7-7z" fill="#FEFEFE"/>
<path transform="translate(197,299)" d="m0 0h14v25l-1 1h-12l-1-1z" fill="#040404"/>
<path transform="translate(175,299)" d="m0 0h14v25l-1 1h-12l-1-1z" fill="#040404"/>
<path transform="translate(867,466)" d="m0 0 12 1v25h-14v-25z" fill="#040404"/>
<path transform="translate(1480,314)" d="m0 0 2 1-4 13-4 17-1 1h-16l8-17 7-9z" fill="#FEFEFE"/>
<path transform="translate(887,467)" d="m0 0h14v25h-14z" fill="#040404"/>
<path transform="translate(535,355)" d="m0 0 5 2 5 6 1 6-5 6h-7l-6-4-2-3 1-6z" fill="#FEFEFE"/>
<path transform="translate(657,355)" d="m0 0 4 2 6 7-1 7-4 4h-7l-7-6-1-5z" fill="#FEFEFE"/>
<path transform="translate(608,303)" d="m0 0 5 3 4 4v3l-13 8-7-5v-2l-3-1v-3z" fill="#040404"/>
<path transform="translate(302,471)" d="m0 0 4 1 5 6v3l-11 7-5-1-7-7 3-3z" fill="#040404"/>
<path transform="translate(464,146)" d="m0 0h8l5 3v12l-7 3h-5l-1-1z" fill="#FEFEFE"/>
<path transform="translate(441,500)" d="m0 0 5 1 2 6-2 5-8 5-8 1-1-3 7-11z" fill="#FEFEFE"/>
<path transform="translate(1081,332)" d="m0 0 4 1 2 3v6l-5 5-8 3h-5l1-6 8-10z" fill="#FEFEFE"/>
<path transform="translate(790,332)" d="m0 0 5 1v11l-8 5-8 1-1-4 8-11z" fill="#FEFEFE"/>
<path transform="translate(734,558)" d="m0 0 2 2-7 10-3 2h-7v-5l10-6z" fill="#FEFEFE"/>
<path transform="translate(788,151)" d="m0 0 3 4 3 12h-11l3-11z" fill="#FEFEFE"/>
<path transform="translate(594,150)" d="m0 0 3 4 3 10v3h-10l2-9z" fill="#FEFEFE"/>
<path transform="translate(678,151)" d="m0 0 3 3 3 13h-10l2-9z" fill="#FEFEFE"/>
<path transform="translate(336,552)" d="m0 0 1 3-6 12h-4l3-7 4-6z" fill="#FEFEFE"/>
<path transform="translate(1126,384)" d="m0 0 1 3-7 13h-3l1-5 6-9z" fill="#FEFEFE"/>
<path transform="translate(541,332)" d="m0 0 5 1-1 6-2 2-4-1-1-5z" fill="#FEFEFE"/>
<path transform="translate(662,332)" d="m0 0 5 1-1 6-2 2h-3l-1-7z" fill="#FEFEFE"/>
<path transform="translate(1560,308)" d="m0 0h2l-1 6-5 8h-2l3-9z" fill="#FEFEFE"/>
</svg>
